<svg xmlns="http://www.w3.org/2000/svg" width="600" height="444" viewBox="0 0 600 444">
<text x="300" y="34" text-anchor="middle" font-family="Inter, system-ui, -apple-system, sans-serif" font-size="18" font-weight="700" fill="#495057">Blog Schema</text>
<g class="er-diagram" transform="translate(0,48)">
<defs><marker id="er-1-arrow" markerWidth="6" markerHeight="5" refX="5" refY="2.5" orient="auto" markerUnits="strokeWidth"><polygon points="0 0, 6 2.5, 0 5" fill="#868e96"/></marker></defs>
<line x1="260" y1="101" x2="340" y2="101" stroke="#868e96" stroke-width="1.5" marker-end="url(#er-1-arrow)"/>
<text x="300" y="95" text-anchor="middle" font-family="Inter, system-ui, -apple-system, sans-serif" font-size="13" fill="#495057" font-style="italic">writes</text>
<line x1="355.6701030927835" y1="162" x2="244.3298969072165" y2="234" stroke="#868e96" stroke-width="1.5" marker-end="url(#er-1-arrow)"/>
<text x="300" y="192" text-anchor="middle" font-family="Inter, system-ui, -apple-system, sans-serif" font-size="13" fill="#495057" font-style="italic">has</text>
<rect x="40" y="40" width="220" height="122" rx="6" ry="6" fill="#eff4ff" stroke="none"/>
<rect x="40" y="40" width="220" height="44" rx="6" ry="6" fill="#fff4ef" stroke="none"/>
<rect x="40" y="78" width="220" height="6" fill="#fff4ef" stroke="none"/>
<line x1="40" y1="84" x2="260" y2="84" stroke="#e8684a" stroke-width="1"/>
<text x="48" y="51" font-family="Inter, system-ui, -apple-system, sans-serif" font-size="9" font-weight="500" letter-spacing="0.12em" fill="#bf3c22" opacity="0.7">ENTITY</text>
<text x="150" y="75" text-anchor="middle" font-family="Inter, system-ui, -apple-system, sans-serif" font-size="14" font-weight="600" fill="#bf3c22">User</text>
<rect x="41" y="84" width="218" height="26" fill="rgba(134,142,150,0.06)" stroke="none"/>
<text x="50" y="103.5" font-family="Inter, system-ui, -apple-system, sans-serif" font-size="14" fill="#5b8ff9" font-weight="600"># id</text>
<text x="252" y="103.5" text-anchor="end" font-family="Inter, system-ui, -apple-system, sans-serif" font-size="12" fill="#868e96">uuid</text>
<text x="50" y="129.5" font-family="Inter, system-ui, -apple-system, sans-serif" font-size="14" fill="#495057">email</text>
<text x="252" y="129.5" text-anchor="end" font-family="Inter, system-ui, -apple-system, sans-serif" font-size="12" fill="#868e96">text</text>
<rect x="41" y="136" width="218" height="26" fill="rgba(134,142,150,0.06)" stroke="none" rx="6" ry="6"/>
<text x="50" y="155.5" font-family="Inter, system-ui, -apple-system, sans-serif" font-size="14" fill="#495057">name</text>
<text x="252" y="155.5" text-anchor="end" font-family="Inter, system-ui, -apple-system, sans-serif" font-size="12" fill="#868e96">text</text>
<rect x="40" y="40" width="220" height="122" rx="6" ry="6" fill="none" stroke="#e8684a" stroke-width="1.5"/>
<rect x="340" y="40" width="220" height="122" rx="6" ry="6" fill="#eff4ff" stroke="none"/>
<rect x="340" y="40" width="220" height="44" rx="6" ry="6" fill="#edfaf5" stroke="none"/>
<rect x="340" y="78" width="220" height="6" fill="#edfaf5" stroke="none"/>
<line x1="340" y1="84" x2="560" y2="84" stroke="#5ad8a6" stroke-width="1"/>
<text x="348" y="51" font-family="Inter, system-ui, -apple-system, sans-serif" font-size="9" font-weight="500" letter-spacing="0.12em" fill="#1c9c6f" opacity="0.7">ENTITY</text>
<text x="450" y="75" text-anchor="middle" font-family="Inter, system-ui, -apple-system, sans-serif" font-size="14" font-weight="600" fill="#1c9c6f">Post</text>
<rect x="341" y="84" width="218" height="26" fill="rgba(134,142,150,0.06)" stroke="none"/>
<text x="350" y="103.5" font-family="Inter, system-ui, -apple-system, sans-serif" font-size="14" fill="#5ad8a6" font-weight="600"># id</text>
<text x="552" y="103.5" text-anchor="end" font-family="Inter, system-ui, -apple-system, sans-serif" font-size="12" fill="#868e96">uuid</text>
<text x="350" y="129.5" font-family="Inter, system-ui, -apple-system, sans-serif" font-size="14" fill="#5ad8a6" font-weight="600">→ author_id</text>
<text x="552" y="129.5" text-anchor="end" font-family="Inter, system-ui, -apple-system, sans-serif" font-size="12" fill="#868e96">uuid</text>
<rect x="341" y="136" width="218" height="26" fill="rgba(134,142,150,0.06)" stroke="none" rx="6" ry="6"/>
<text x="350" y="155.5" font-family="Inter, system-ui, -apple-system, sans-serif" font-size="14" fill="#495057">title</text>
<text x="552" y="155.5" text-anchor="end" font-family="Inter, system-ui, -apple-system, sans-serif" font-size="12" fill="#868e96">text</text>
<rect x="340" y="40" width="220" height="122" rx="6" ry="6" fill="none" stroke="#5ad8a6" stroke-width="1.5"/>
<rect x="40" y="234" width="220" height="122" rx="6" ry="6" fill="#eff4ff" stroke="none"/>
<rect x="40" y="234" width="220" height="44" rx="6" ry="6" fill="#f5f0fd" stroke="none"/>
<rect x="40" y="272" width="220" height="6" fill="#f5f0fd" stroke="none"/>
<line x1="40" y1="278" x2="260" y2="278" stroke="#9270ca" stroke-width="1"/>
<text x="48" y="245" font-family="Inter, system-ui, -apple-system, sans-serif" font-size="9" font-weight="500" letter-spacing="0.12em" fill="#5e3b9e" opacity="0.7">ENTITY</text>
<text x="150" y="269" text-anchor="middle" font-family="Inter, system-ui, -apple-system, sans-serif" font-size="14" font-weight="600" fill="#5e3b9e">Comment</text>
<rect x="41" y="278" width="218" height="26" fill="rgba(134,142,150,0.06)" stroke="none"/>
<text x="50" y="297.5" font-family="Inter, system-ui, -apple-system, sans-serif" font-size="14" fill="#9270ca" font-weight="600"># id</text>
<text x="252" y="297.5" text-anchor="end" font-family="Inter, system-ui, -apple-system, sans-serif" font-size="12" fill="#868e96">uuid</text>
<text x="50" y="323.5" font-family="Inter, system-ui, -apple-system, sans-serif" font-size="14" fill="#9270ca" font-weight="600">→ post_id</text>
<text x="252" y="323.5" text-anchor="end" font-family="Inter, system-ui, -apple-system, sans-serif" font-size="12" fill="#868e96">uuid</text>
<rect x="41" y="330" width="218" height="26" fill="rgba(134,142,150,0.06)" stroke="none" rx="6" ry="6"/>
<text x="50" y="349.5" font-family="Inter, system-ui, -apple-system, sans-serif" font-size="14" fill="#495057">body</text>
<text x="252" y="349.5" text-anchor="end" font-family="Inter, system-ui, -apple-system, sans-serif" font-size="12" fill="#868e96">text</text>
<rect x="40" y="234" width="220" height="122" rx="6" ry="6" fill="none" stroke="#9270ca" stroke-width="1.5"/>
</g>
</svg>