<svg xmlns="http://www.w3.org/2000/svg" width="1796" height="372" viewBox="-28 -28 1796 372">
<defs>
    <marker id="arrowhead" markerWidth="8" markerHeight="6"
      refX="7" refY="3" orient="auto" markerUnits="strokeWidth">
      <polygon points="0 0, 8 3, 0 6, 1.5 3" fill="#495057"/>
    </marker>
    <style>
      @keyframes ai-fc-flow { to { stroke-dashoffset: -26; } }
      .ai-fc-edge { animation: ai-fc-flow 1.2s linear infinite; }
    </style>
  </defs>
<g class="flowchart">
<g class="group" data-id="auto">
<rect x="216" y="70" width="868" height="250" rx="8" fill="rgba(134,142,150,0.06)" stroke="#868e96" stroke-width="1.5" stroke-dasharray="6 3"/>
<text x="226" y="88" font-family="Inter, system-ui, -apple-system, sans-serif" font-size="11" fill="#868e96" font-weight="500">Automated Checks</text>
</g>
<g class="group" data-id="manual">
<rect x="1096" y="168" width="428" height="150" rx="8" fill="rgba(134,142,150,0.06)" stroke="#868e96" stroke-width="1.5" stroke-dasharray="6 3"/>
<text x="1106" y="186" font-family="Inter, system-ui, -apple-system, sans-serif" font-size="11" fill="#868e96" font-weight="500">Manual Review</text>
</g>
<g class="edge" data-from="post" data-to="hash_check">
<path d="M180,156 L200,156 Q210,156 220,156 L240,156" fill="none" stroke="#495057" stroke-width="1.5" stroke-linecap="round" stroke-linejoin="round" stroke-dasharray="8 5" class="ai-fc-edge" marker-end="url(#arrowhead)"/>

</g>
<g class="edge" data-from="hash_check" data-to="hash_hit">
<path d="M400,156 L420,156 Q430,156 440,156 L460,156" fill="none" stroke="#495057" stroke-width="1.5" stroke-linecap="round" stroke-linejoin="round" stroke-dasharray="8 5" class="ai-fc-edge" marker-end="url(#arrowhead)"/>

</g>
<g class="edge" data-from="hash_hit" data-to="auto_remove">
<path d="M580.7407407407408,116 L642.8643602963147,55.00590079998202 Q650,48 660,48 L680,48" fill="none" stroke="#495057" stroke-width="1.5" stroke-linecap="round" stroke-linejoin="round" stroke-dasharray="8 5" class="ai-fc-edge" marker-end="url(#arrowhead)"/>
<rect x="633.5" y="38" width="33" height="20" fill="white" rx="3" opacity="0.9"/>
<text x="650" y="48" text-anchor="middle" dominant-baseline="middle" font-family="Inter, system-ui, -apple-system, sans-serif" font-size="12" fill="#495057">Yes</text>
</g>
<g class="edge" data-from="hash_hit" data-to="text_scan">
<path d="M620,156 L640,156 Q650,156 660,156 L680,156" fill="none" stroke="#495057" stroke-width="1.5" stroke-linecap="round" stroke-linejoin="round" stroke-dasharray="8 5" class="ai-fc-edge" marker-end="url(#arrowhead)"/>
<rect x="637" y="146" width="26" height="20" fill="white" rx="3" opacity="0.9"/>
<text x="650" y="156" text-anchor="middle" dominant-baseline="middle" font-family="Inter, system-ui, -apple-system, sans-serif" font-size="12" fill="#495057">No</text>
</g>
<g class="edge" data-from="hash_hit" data-to="image_scan">
<path d="M580,196 L642.9289321881346,258.9289321881345 Q650,266 660,266 L680,266" fill="none" stroke="#495057" stroke-width="1.5" stroke-linecap="round" stroke-linejoin="round" stroke-dasharray="8 5" class="ai-fc-edge" marker-end="url(#arrowhead)"/>
<rect x="637" y="256" width="26" height="20" fill="white" rx="3" opacity="0.9"/>
<text x="650" y="266" text-anchor="middle" dominant-baseline="middle" font-family="Inter, system-ui, -apple-system, sans-serif" font-size="12" fill="#495057">No</text>
</g>
<g class="edge" data-from="text_scan" data-to="risk">
<path d="M840,156 L860,156 Q870,156 878.9442719099992,160.47213595499957 L900,171" fill="none" stroke="#495057" stroke-width="1.5" stroke-linecap="round" stroke-linejoin="round" stroke-dasharray="8 5" class="ai-fc-edge" marker-end="url(#arrowhead)"/>

</g>
<g class="edge" data-from="image_scan" data-to="risk">
<path d="M840,266 L860,266 Q870,266 878.9442719099992,261.5278640450004 L900,251" fill="none" stroke="#495057" stroke-width="1.5" stroke-linecap="round" stroke-linejoin="round" stroke-dasharray="8 5" class="ai-fc-edge" marker-end="url(#arrowhead)"/>

</g>
<g class="edge" data-from="risk" data-to="human">
<path d="M1060,242.27272727272728 L1080.686323523807,250.35919919567002 Q1090,254 1100,254 L1120,254" fill="none" stroke="#495057" stroke-width="1.5" stroke-linecap="round" stroke-linejoin="round" stroke-dasharray="8 5" class="ai-fc-edge" marker-end="url(#arrowhead)"/>
<rect x="1070" y="244" width="40" height="20" fill="white" rx="3" opacity="0.9"/>
<text x="1090" y="254" text-anchor="middle" dominant-baseline="middle" font-family="Inter, system-ui, -apple-system, sans-serif" font-size="12" fill="#495057">High</text>
</g>
<g class="edge" data-from="risk" data-to="approve">
<path d="M1049.8412698412699,171 L1081.3224273211922,152.96988253422631 Q1090,148 1100,148 L1190,148 Q1200,148 1210,148 L1300,148 Q1310,148 1320,148 L1410,148 Q1420,148 1430,148 L1520,148 Q1530,148 1539.9589320646771,148.9053574604252 L1560,150.72727272727272" fill="none" stroke="#495057" stroke-width="1.5" stroke-linecap="round" stroke-linejoin="round" stroke-dasharray="8 5" class="ai-fc-edge" marker-end="url(#arrowhead)"/>
<rect x="1293.5" y="138" width="33" height="20" fill="white" rx="3" opacity="0.9"/>
<text x="1310" y="148" text-anchor="middle" dominant-baseline="middle" font-family="Inter, system-ui, -apple-system, sans-serif" font-size="12" fill="#495057">Low</text>
</g>
<g class="edge" data-from="human" data-to="reviewer">
<path d="M1280,254 L1300,254 Q1310,254 1320,254 L1340,254" fill="none" stroke="#495057" stroke-width="1.5" stroke-linecap="round" stroke-linejoin="round" stroke-dasharray="8 5" class="ai-fc-edge" marker-end="url(#arrowhead)"/>

</g>
<g class="edge" data-from="reviewer" data-to="approve">
<path d="M1500,215.45454545454544 L1520.9911692513674,205.3406184516139 Q1530,201 1539.313676476193,197.35919919567002 L1568.3720930232557,186" fill="none" stroke="#495057" stroke-width="1.5" stroke-linecap="round" stroke-linejoin="round" stroke-dasharray="8 5" class="ai-fc-edge" marker-end="url(#arrowhead)"/>
<rect x="1517" y="191" width="26" height="20" fill="white" rx="3" opacity="0.9"/>
<text x="1530" y="201" text-anchor="middle" dominant-baseline="middle" font-family="Inter, system-ui, -apple-system, sans-serif" font-size="12" fill="#495057">OK</text>
</g>
<g class="edge" data-from="reviewer" data-to="remove">
<path d="M1500,261.27272727272725 L1520.0410679353229,263.0946425395748 Q1530,264 1540,264 L1560,264" fill="none" stroke="#495057" stroke-width="1.5" stroke-linecap="round" stroke-linejoin="round" stroke-dasharray="8 5" class="ai-fc-edge" marker-end="url(#arrowhead)"/>
<rect x="1496" y="254" width="68" height="20" fill="white" rx="3" opacity="0.9"/>
<text x="1530" y="264" text-anchor="middle" dominant-baseline="middle" font-family="Inter, system-ui, -apple-system, sans-serif" font-size="12" fill="#495057">Violates</text>
</g>
<g class="node node-io" data-id="post">
<polygon points="34,126 180,126 166,186 20,186" fill="#fdf4ff" stroke="#cc5de8" stroke-width="2" stroke-linejoin="round"/>
<text x="100" y="156" text-anchor="middle" dominant-baseline="middle" font-family="Inter, system-ui, -apple-system, sans-serif" font-size="14" fill="#862e9c">User Post</text>
</g>
<g class="node node-process" data-id="hash_check">
<rect x="240" y="126" width="160" height="60" rx="6" ry="6" fill="#fff7e6" stroke="#f59f00" stroke-width="2"/>
<text x="320" y="156" text-anchor="middle" dominant-baseline="middle" font-family="Inter, system-ui, -apple-system, sans-serif" font-size="14" fill="#e67700">Hash Blocklist</text>
</g>
<g class="node node-decision" data-id="hash_hit">
<polygon points="540,116 620,156 540,196 460,156" fill="#e7f5ff" stroke="#339af0" stroke-width="2" stroke-linejoin="round"/>
<text x="540" y="156" text-anchor="middle" dominant-baseline="middle" font-family="Inter, system-ui, -apple-system, sans-serif" font-size="14" fill="#1971c2">Blocked Hash?</text>
</g>
<g class="node node-terminal" data-id="auto_remove">
<rect x="680" y="20" width="160" height="56" rx="28" ry="28" fill="#ebfbee" stroke="#51cf66" stroke-width="2"/>
<text x="760" y="48" text-anchor="middle" dominant-baseline="middle" font-family="Inter, system-ui, -apple-system, sans-serif" font-size="14" fill="#2f9e44">Auto Remove</text>
</g>
<g class="node node-process" data-id="text_scan">
<rect x="680" y="126" width="160" height="60" rx="6" ry="6" fill="#fff7e6" stroke="#f59f00" stroke-width="2"/>
<text x="760" y="156" text-anchor="middle" dominant-baseline="middle" font-family="Inter, system-ui, -apple-system, sans-serif" font-size="14" fill="#e67700">Text Classifier</text>
</g>
<g class="node node-process" data-id="image_scan">
<rect x="680" y="236" width="160" height="60" rx="6" ry="6" fill="#fff7e6" stroke="#f59f00" stroke-width="2"/>
<text x="760" y="266" text-anchor="middle" dominant-baseline="middle" font-family="Inter, system-ui, -apple-system, sans-serif" font-size="14" fill="#e67700">Image Classifier</text>
</g>
<g class="node node-decision" data-id="risk">
<polygon points="980,171 1060,211 980,251 900,211" fill="#e7f5ff" stroke="#339af0" stroke-width="2" stroke-linejoin="round"/>
<text x="980" y="211" text-anchor="middle" dominant-baseline="middle" font-family="Inter, system-ui, -apple-system, sans-serif" font-size="14" fill="#1971c2">Risk Score &gt; 0.8?</text>
</g>
<g class="node node-process" data-id="human">
<rect x="1120" y="224" width="160" height="60" rx="6" ry="6" fill="#fff7e6" stroke="#f59f00" stroke-width="2"/>
<text x="1200" y="244.20000000000002" text-anchor="middle" dominant-baseline="middle" font-family="Inter, system-ui, -apple-system, sans-serif" font-size="14" fill="#e67700">Human Review</text>
<text x="1200" y="263.8" text-anchor="middle" dominant-baseline="middle" font-family="Inter, system-ui, -apple-system, sans-serif" font-size="14" fill="#e67700">Queue</text>
</g>
<g class="node node-decision" data-id="reviewer">
<polygon points="1420,214 1500,254 1420,294 1340,254" fill="#e7f5ff" stroke="#339af0" stroke-width="2" stroke-linejoin="round"/>
<text x="1420" y="254" text-anchor="middle" dominant-baseline="middle" font-family="Inter, system-ui, -apple-system, sans-serif" font-size="14" fill="#1971c2">Reviewer Decision</text>
</g>
<g class="node node-terminal" data-id="approve">
<rect x="1560" y="130" width="160" height="56" rx="28" ry="28" fill="#ebfbee" stroke="#51cf66" stroke-width="2"/>
<text x="1640" y="158" text-anchor="middle" dominant-baseline="middle" font-family="Inter, system-ui, -apple-system, sans-serif" font-size="14" fill="#2f9e44">Approve &amp; Publish</text>
</g>
<g class="node node-terminal" data-id="remove">
<rect x="1560" y="236" width="160" height="56" rx="28" ry="28" fill="#ebfbee" stroke="#51cf66" stroke-width="2"/>
<text x="1640" y="264" text-anchor="middle" dominant-baseline="middle" font-family="Inter, system-ui, -apple-system, sans-serif" font-size="14" fill="#2f9e44">Remove &amp; Notify</text>
</g>
</g>
</svg>