<svg xmlns="http://www.w3.org/2000/svg" width="1576" height="286" viewBox="-28 -28 1576 286">
<defs>
    <marker id="arrowhead" markerWidth="8" markerHeight="6"
      refX="7" refY="3" orient="auto" markerUnits="strokeWidth">
      <polygon points="0 0, 8 3, 0 6, 1.5 3" fill="#555555"/>
    </marker>
    <style>
      @keyframes ai-fc-flow { to { stroke-dashoffset: -26; } }
      .ai-fc-edge { animation: ai-fc-flow 1.2s linear infinite; }
    </style>
  </defs>
<g class="flowchart">

<g class="edge" data-from="request" data-to="flag_enabled">
<path d="M180,135 L200,135 Q210,135 220,135 L240,135" fill="none" stroke="#555555" stroke-width="1.5" stroke-linecap="round" stroke-linejoin="round" stroke-dasharray="8 5" class="ai-fc-edge" marker-end="url(#arrowhead)"/>

</g>
<g class="edge" data-from="flag_enabled" data-to="user_segment">
<path d="M400,107.72727272727272 L420.5348981182146,100.72673927788138 Q430,97.5 440,97.5 L460,97.5" fill="none" stroke="#555555" stroke-width="1.5" stroke-linecap="round" stroke-linejoin="round" stroke-dasharray="8 5" class="ai-fc-edge" marker-end="url(#arrowhead)"/>
<rect x="413.5" y="87.5" width="33" height="20" fill="white" rx="3" opacity="0.9"/>
<text x="430" y="97.5" text-anchor="middle" dominant-baseline="middle" font-family="Inter, system-ui, -apple-system, sans-serif" font-size="12" fill="#555555">Yes</text>
</g>
<g class="edge" data-from="flag_enabled" data-to="old_feature">
<path d="M387.6923076923077,175 L421.39073471785684,194.9127068787336 Q430,200 440,200 L530,200 Q540,200 550,200 L640,200 Q650,200 660,200 L750,200 Q760,200 770,200 L860,200 Q870,200 879.8386991009991,198.21114561800016 L900,194.54545454545453" fill="none" stroke="#555555" stroke-width="1.5" stroke-linecap="round" stroke-linejoin="round" stroke-dasharray="8 5" class="ai-fc-edge" marker-end="url(#arrowhead)"/>
<rect x="637" y="190" width="26" height="20" fill="white" rx="3" opacity="0.9"/>
<text x="650" y="200" text-anchor="middle" dominant-baseline="middle" font-family="Inter, system-ui, -apple-system, sans-serif" font-size="12" fill="#555555">No</text>
</g>
<g class="edge" data-from="user_segment" data-to="canary">
<path d="M620,70.22727272727272 L640.5348981182146,63.226739277881386 Q650,60 660,60 L680,60" fill="none" stroke="#555555" stroke-width="1.5" stroke-linecap="round" stroke-linejoin="round" stroke-dasharray="8 5" class="ai-fc-edge" marker-end="url(#arrowhead)"/>
<rect x="633.5" y="50" width="33" height="20" fill="white" rx="3" opacity="0.9"/>
<text x="650" y="60" text-anchor="middle" dominant-baseline="middle" font-family="Inter, system-ui, -apple-system, sans-serif" font-size="12" fill="#555555">Yes</text>
</g>
<g class="edge" data-from="user_segment" data-to="old_feature">
<path d="M620,137.5 L641.0557280900008,148.02786404500043 Q650,152.5 660,152.5 L750,152.5 Q760,152.5 770,152.5 L860,152.5 Q870,152.5 879.7014250014533,154.92535625036334 L900,160" fill="none" stroke="#555555" stroke-width="1.5" stroke-linecap="round" stroke-linejoin="round" stroke-dasharray="8 5" class="ai-fc-edge" marker-end="url(#arrowhead)"/>
<rect x="747" y="142.5" width="26" height="20" fill="white" rx="3" opacity="0.9"/>
<text x="760" y="152.5" text-anchor="middle" dominant-baseline="middle" font-family="Inter, system-ui, -apple-system, sans-serif" font-size="12" fill="#555555">No</text>
</g>
<g class="edge" data-from="canary" data-to="new_feature">
<path d="M840,52.72727272727273 L860.041067935323,50.905357460425186 Q870,50 880,50 L900,50" fill="none" stroke="#555555" stroke-width="1.5" stroke-linecap="round" stroke-linejoin="round" stroke-dasharray="8 5" class="ai-fc-edge" marker-end="url(#arrowhead)"/>
<rect x="857" y="40" width="26" height="20" fill="white" rx="3" opacity="0.9"/>
<text x="870" y="50" text-anchor="middle" dominant-baseline="middle" font-family="Inter, system-ui, -apple-system, sans-serif" font-size="12" fill="#555555">In</text>
</g>
<g class="edge" data-from="canary" data-to="old_feature">
<path d="M840,92.72727272727272 L860.7445304379432,101.21367154279496 Q870,105 878.2622734280754,110.6333682464151 L936,150" fill="none" stroke="#555555" stroke-width="1.5" stroke-linecap="round" stroke-linejoin="round" stroke-dasharray="8 5" class="ai-fc-edge" marker-end="url(#arrowhead)"/>
<rect x="853.5" y="95" width="33" height="20" fill="white" rx="3" opacity="0.9"/>
<text x="870" y="105" text-anchor="middle" dominant-baseline="middle" font-family="Inter, system-ui, -apple-system, sans-serif" font-size="12" fill="#555555">Out</text>
</g>
<g class="edge" data-from="new_feature" data-to="log_metrics">
<path d="M1060,50 L1080,50 Q1090,50 1099.180623535362,53.96436016299718 L1130.5263157894738,67.5" fill="none" stroke="#555555" stroke-width="1.5" stroke-linecap="round" stroke-linejoin="round" stroke-dasharray="8 5" class="ai-fc-edge" marker-end="url(#arrowhead)"/>

</g>
<g class="edge" data-from="old_feature" data-to="log_metrics">
<path d="M1060,180 L1080,180 Q1090,180 1098,174 L1160,127.5" fill="none" stroke="#555555" stroke-width="1.5" stroke-linecap="round" stroke-linejoin="round" stroke-dasharray="8 5" class="ai-fc-edge" marker-end="url(#arrowhead)"/>

</g>
<g class="edge" data-from="log_metrics" data-to="respond">
<path d="M1280,97.5 L1300,97.5 Q1310,97.5 1320,97.5 L1340,97.5" fill="none" stroke="#555555" stroke-width="1.5" stroke-linecap="round" stroke-linejoin="round" stroke-dasharray="8 5" class="ai-fc-edge" marker-end="url(#arrowhead)"/>

</g>
<g class="node node-terminal" data-id="request">
<rect x="20" y="107" width="160" height="56" rx="28" ry="28" fill="#eafaf1" stroke="#27ae60" stroke-width="1.5"/>
<text x="100" y="135" text-anchor="middle" dominant-baseline="middle" font-family="Inter, system-ui, -apple-system, sans-serif" font-size="14" fill="#1b5e20">Incoming Request</text>
</g>
<g class="node node-decision" data-id="flag_enabled">
<polygon points="320,95 400,135 320,175 240,135" fill="#fef9e7" stroke="#f39c12" stroke-width="1.5" stroke-linejoin="round"/>
<text x="320" y="135" text-anchor="middle" dominant-baseline="middle" font-family="Inter, system-ui, -apple-system, sans-serif" font-size="14" fill="#e65100">Flag Enabled?</text>
</g>
<g class="node node-decision" data-id="user_segment">
<polygon points="540,57.5 620,97.5 540,137.5 460,97.5" fill="#fef9e7" stroke="#f39c12" stroke-width="1.5" stroke-linejoin="round"/>
<text x="540" y="87.7" text-anchor="middle" dominant-baseline="middle" font-family="Inter, system-ui, -apple-system, sans-serif" font-size="14" fill="#e65100">In Target</text>
<text x="540" y="107.3" text-anchor="middle" dominant-baseline="middle" font-family="Inter, system-ui, -apple-system, sans-serif" font-size="14" fill="#e65100">Segment?</text>
</g>
<g class="node node-decision" data-id="canary">
<polygon points="760,20 840,60 760,100 680,60" fill="#fef9e7" stroke="#f39c12" stroke-width="1.5" stroke-linejoin="round"/>
<text x="760" y="60" text-anchor="middle" dominant-baseline="middle" font-family="Inter, system-ui, -apple-system, sans-serif" font-size="14" fill="#e65100">Canary %?</text>
</g>
<g class="node node-process" data-id="new_feature">
<rect x="900" y="20" width="160" height="60" rx="6" ry="6" fill="#e8f4fd" stroke="#2196f3" stroke-width="1.5"/>
<text x="980" y="50" text-anchor="middle" dominant-baseline="middle" font-family="Inter, system-ui, -apple-system, sans-serif" font-size="14" fill="#1565c0">New Feature</text>
</g>
<g class="node node-process" data-id="old_feature">
<rect x="900" y="150" width="160" height="60" rx="6" ry="6" fill="#e8f4fd" stroke="#2196f3" stroke-width="1.5"/>
<text x="980" y="180" text-anchor="middle" dominant-baseline="middle" font-family="Inter, system-ui, -apple-system, sans-serif" font-size="14" fill="#1565c0">Existing Feature</text>
</g>
<g class="node node-io" data-id="log_metrics">
<polygon points="1134,67.5 1280,67.5 1266,127.5 1120,127.5" fill="#fdf2f8" stroke="#8e44ad" stroke-width="1.5" stroke-linejoin="round"/>
<text x="1200" y="97.5" text-anchor="middle" dominant-baseline="middle" font-family="Inter, system-ui, -apple-system, sans-serif" font-size="14" fill="#6a1b9a">Log Metrics</text>
</g>
<g class="node node-terminal" data-id="respond">
<rect x="1340" y="69.5" width="160" height="56" rx="28" ry="28" fill="#eafaf1" stroke="#27ae60" stroke-width="1.5"/>
<text x="1420" y="97.5" text-anchor="middle" dominant-baseline="middle" font-family="Inter, system-ui, -apple-system, sans-serif" font-size="14" fill="#1b5e20">Send Response</text>
</g>
</g>
</svg>