<svg xmlns="http://www.w3.org/2000/svg" width="486" height="1048" viewBox="-28 -28 486 1048">
<defs>
    <marker id="arrowhead" markerWidth="8" markerHeight="6"
      refX="7" refY="3" orient="auto" markerUnits="strokeWidth">
      <polygon points="0 0, 8 3, 0 6, 1.5 3" fill="#555555"/>
    </marker>
    <style>
      @keyframes ai-fc-flow { to { stroke-dashoffset: -26; } }
      .ai-fc-edge { animation: ai-fc-flow 1.2s linear infinite; }
    </style>
  </defs>
<g class="flowchart">

<g class="edge" data-from="request" data-to="flag_enabled">
<path d="M230,76 L230,106 Q230,116 230,126 L230,156" fill="none" stroke="#555555" stroke-width="1.5" stroke-linecap="round" stroke-linejoin="round" stroke-dasharray="8 5" class="ai-fc-edge" marker-end="url(#arrowhead)"/>

</g>
<g class="edge" data-from="flag_enabled" data-to="user_segment">
<path d="M200,236 L176,268 Q170,276 170,286 L170,316" fill="none" stroke="#555555" stroke-width="1.5" stroke-linecap="round" stroke-linejoin="round" stroke-dasharray="8 5" class="ai-fc-edge" marker-end="url(#arrowhead)"/>
<rect x="153.5" y="266" width="33" height="20" fill="white" rx="3" opacity="0.9"/>
<text x="170" y="276" dy="0.35em" text-anchor="middle" font-family="Inter, system-ui, -apple-system, sans-serif" font-size="12" fill="#555555">Yes</text>
</g>
<g class="edge" data-from="flag_enabled" data-to="old_feature">
<path d="M290,236 L341.6794970566216,270.4529980377477 Q350,276 350,286 L350,346 Q350,356 350,366 L350,426 Q350,436 350,446 L350,506 Q350,516 350,526 L350,586 Q350,596 347.2527887210262,605.6152394764082 L338.57142857142856,636" fill="none" stroke="#555555" stroke-width="1.5" stroke-linecap="round" stroke-linejoin="round" stroke-dasharray="8 5" class="ai-fc-edge" marker-end="url(#arrowhead)"/>
<rect x="337" y="426" width="26" height="20" fill="white" rx="3" opacity="0.9"/>
<text x="350" y="436" dy="0.35em" text-anchor="middle" font-family="Inter, system-ui, -apple-system, sans-serif" font-size="12" fill="#555555">No</text>
</g>
<g class="edge" data-from="user_segment" data-to="canary">
<path d="M140,396 L116,428 Q110,436 110,446 L110,476" fill="none" stroke="#555555" stroke-width="1.5" stroke-linecap="round" stroke-linejoin="round" stroke-dasharray="8 5" class="ai-fc-edge" marker-end="url(#arrowhead)"/>
<rect x="93.5" y="426" width="33" height="20" fill="white" rx="3" opacity="0.9"/>
<text x="110" y="436" dy="0.35em" text-anchor="middle" font-family="Inter, system-ui, -apple-system, sans-serif" font-size="12" fill="#555555">Yes</text>
</g>
<g class="edge" data-from="user_segment" data-to="old_feature">
<path d="M225,396 L271.9126391569681,430.11828302324955 Q280,436 280,446 L280,506 Q280,516 280,526 L280,586 Q280,596 285.81238193719093,604.1373347120674 L308.57142857142856,636" fill="none" stroke="#555555" stroke-width="1.5" stroke-linecap="round" stroke-linejoin="round" stroke-dasharray="8 5" class="ai-fc-edge" marker-end="url(#arrowhead)"/>
<rect x="267" y="506" width="26" height="20" fill="white" rx="3" opacity="0.9"/>
<text x="280" y="516" dy="0.35em" text-anchor="middle" font-family="Inter, system-ui, -apple-system, sans-serif" font-size="12" fill="#555555">No</text>
</g>
<g class="edge" data-from="canary" data-to="new_feature">
<path d="M105,556 L101.24034734589209,586.0772212328633 Q100,596 100,606 L100,636" fill="none" stroke="#555555" stroke-width="1.5" stroke-linecap="round" stroke-linejoin="round" stroke-dasharray="8 5" class="ai-fc-edge" marker-end="url(#arrowhead)"/>
<rect x="87" y="586" width="26" height="20" fill="white" rx="3" opacity="0.9"/>
<text x="100" y="596" dy="0.35em" text-anchor="middle" font-family="Inter, system-ui, -apple-system, sans-serif" font-size="12" fill="#555555">In</text>
</g>
<g class="edge" data-from="canary" data-to="old_feature">
<path d="M160,556 L202.1913119055697,589.7530495244557 Q210,596 218.63778900898433,601.0387102552409 L278.57142857142856,636" fill="none" stroke="#555555" stroke-width="1.5" stroke-linecap="round" stroke-linejoin="round" stroke-dasharray="8 5" class="ai-fc-edge" marker-end="url(#arrowhead)"/>
<rect x="193.5" y="586" width="33" height="20" fill="white" rx="3" opacity="0.9"/>
<text x="210" y="596" dy="0.35em" text-anchor="middle" font-family="Inter, system-ui, -apple-system, sans-serif" font-size="12" fill="#555555">Out</text>
</g>
<g class="edge" data-from="new_feature" data-to="log_metrics">
<path d="M100,696 L100,726 Q100,736 107.07106781186548,743.0710678118654 L140,776" fill="none" stroke="#555555" stroke-width="1.5" stroke-linecap="round" stroke-linejoin="round" stroke-dasharray="8 5" class="ai-fc-edge" marker-end="url(#arrowhead)"/>

</g>
<g class="edge" data-from="old_feature" data-to="log_metrics">
<path d="M330,696 L330,726 Q330,736 320.83842665097814,740.0081883401971 L238.57142857142856,776" fill="none" stroke="#555555" stroke-width="1.5" stroke-linecap="round" stroke-linejoin="round" stroke-dasharray="8 5" class="ai-fc-edge" marker-end="url(#arrowhead)"/>

</g>
<g class="edge" data-from="log_metrics" data-to="respond">
<path d="M170,836 L170,866 Q170,876 170,886 L170,916" fill="none" stroke="#555555" stroke-width="1.5" stroke-linecap="round" stroke-linejoin="round" stroke-dasharray="8 5" class="ai-fc-edge" marker-end="url(#arrowhead)"/>

</g>
<g class="node node-terminal" data-id="request">
<rect x="150" y="20" width="160" height="56" rx="28" ry="28" fill="#eafaf1" stroke="#27ae60" stroke-width="1.5"/>
<text x="230" y="48" text-anchor="middle" dominant-baseline="middle" font-family="Inter, system-ui, -apple-system, sans-serif" font-size="14" fill="#1b5e20">Incoming Request</text>
</g>
<g class="node node-decision" data-id="flag_enabled">
<polygon points="230,156 310,196 230,236 150,196" fill="#fef9e7" stroke="#f39c12" stroke-width="1.5" stroke-linejoin="round"/>
<text x="230" y="196" text-anchor="middle" dominant-baseline="middle" font-family="Inter, system-ui, -apple-system, sans-serif" font-size="14" fill="#e65100">Flag Enabled?</text>
</g>
<g class="node node-decision" data-id="user_segment">
<polygon points="170,316 250,356 170,396 90,356" fill="#fef9e7" stroke="#f39c12" stroke-width="1.5" stroke-linejoin="round"/>
<text x="170" y="346.2" text-anchor="middle" dominant-baseline="middle" font-family="Inter, system-ui, -apple-system, sans-serif" font-size="14" fill="#e65100">In Target</text>
<text x="170" y="365.8" text-anchor="middle" dominant-baseline="middle" font-family="Inter, system-ui, -apple-system, sans-serif" font-size="14" fill="#e65100">Segment?</text>
</g>
<g class="node node-decision" data-id="canary">
<polygon points="110,476 190,516 110,556 30,516" fill="#fef9e7" stroke="#f39c12" stroke-width="1.5" stroke-linejoin="round"/>
<text x="110" y="516" text-anchor="middle" dominant-baseline="middle" font-family="Inter, system-ui, -apple-system, sans-serif" font-size="14" fill="#e65100">Canary %?</text>
</g>
<g class="node node-process" data-id="new_feature">
<rect x="20" y="636" width="160" height="60" rx="6" ry="6" fill="#e8f4fd" stroke="#2196f3" stroke-width="1.5"/>
<text x="100" y="666" text-anchor="middle" dominant-baseline="middle" font-family="Inter, system-ui, -apple-system, sans-serif" font-size="14" fill="#1565c0">New Feature</text>
</g>
<g class="node node-process" data-id="old_feature">
<rect x="250" y="636" width="160" height="60" rx="6" ry="6" fill="#e8f4fd" stroke="#2196f3" stroke-width="1.5"/>
<text x="330" y="666" text-anchor="middle" dominant-baseline="middle" font-family="Inter, system-ui, -apple-system, sans-serif" font-size="14" fill="#1565c0">Existing Feature</text>
</g>
<g class="node node-io" data-id="log_metrics">
<polygon points="104,776 250,776 236,836 90,836" fill="#fdf2f8" stroke="#8e44ad" stroke-width="1.5" stroke-linejoin="round"/>
<text x="170" y="806" text-anchor="middle" dominant-baseline="middle" font-family="Inter, system-ui, -apple-system, sans-serif" font-size="14" fill="#6a1b9a">Log Metrics</text>
</g>
<g class="node node-terminal" data-id="respond">
<rect x="90" y="916" width="160" height="56" rx="28" ry="28" fill="#eafaf1" stroke="#27ae60" stroke-width="1.5"/>
<text x="170" y="944" text-anchor="middle" dominant-baseline="middle" font-family="Inter, system-ui, -apple-system, sans-serif" font-size="14" fill="#1b5e20">Send Response</text>
</g>
</g>
</svg>