<svg xmlns="http://www.w3.org/2000/svg" width="976" height="272" viewBox="-28 -28 976 272">
<defs>
    <marker id="fc-1-arrow" markerWidth="8" markerHeight="6"
      refX="7" refY="3" orient="auto" markerUnits="strokeWidth">
      <polygon points="0 0, 8 3, 0 6, 1.5 3" fill="#495057"/>
    </marker>
    <style>
      @keyframes ai-fc-flow { to { stroke-dashoffset: -26; } }
      .ai-fc-edge { animation: ai-fc-flow 1.2s linear infinite; }
    </style>
  </defs>
<g class="flowchart">

<g class="edge" data-from="read" data-to="parse">
<path d="M180,109 L210,109 Q220,109 230,109 L260,109" fill="none" stroke="#495057" stroke-width="1.5" stroke-linecap="round" stroke-linejoin="round" stroke-dasharray="8 5" class="ai-fc-edge" marker-end="url(#fc-1-arrow)"/>

</g>
<g class="edge" data-from="parse" data-to="ok">
<path d="M420,109 L450,109 Q460,109 470,109 L500,109" fill="none" stroke="#495057" stroke-width="1.5" stroke-linecap="round" stroke-linejoin="round" stroke-dasharray="8 5" class="ai-fc-edge" marker-end="url(#fc-1-arrow)"/>

</g>
<g class="edge" data-from="ok" data-to="save">
<path d="M660,69.66666666666666 L691.0260148929267,54.41220934431106 Q700,50 710,50 L740,50" fill="none" stroke="#495057" stroke-width="1.5" stroke-linecap="round" stroke-linejoin="round" stroke-dasharray="8 5" class="ai-fc-edge" marker-end="url(#fc-1-arrow)"/>
<rect x="684.56" y="41" width="30.879999999999995" height="18" fill="white" rx="3" opacity="0.9"/>
<text x="700" y="50" dy="0.35em" text-anchor="middle" font-family="Inter, system-ui, -apple-system, sans-serif" font-size="12" fill="#495057">Yes</text>
</g>
<g class="edge" data-from="ok" data-to="retry">
<path d="M660,148.33333333333334 L691.0260148929267,163.58779065568893 Q700,168 710,168 L740,168" fill="none" stroke="#495057" stroke-width="1.5" stroke-linecap="round" stroke-linejoin="round" stroke-dasharray="8 5" class="ai-fc-edge" marker-end="url(#fc-1-arrow)"/>
<rect x="688.04" y="159" width="23.919999999999998" height="18" fill="white" rx="3" opacity="0.9"/>
<text x="700" y="168" dy="0.35em" text-anchor="middle" font-family="Inter, system-ui, -apple-system, sans-serif" font-size="12" fill="#495057">No</text>
</g>
<g class="node node-io" data-id="read">
<polygon points="34,79 180,79 166,139 20,139" fill="#ffebe9" stroke="#d1242f" stroke-width="2" stroke-linejoin="round"/>
<text x="100" y="109" text-anchor="middle" dominant-baseline="middle" font-family="Inter, system-ui, -apple-system, sans-serif" font-size="14" fill="#a30015">Read File</text>
</g>
<g class="node node-process" data-id="parse">
<rect x="260" y="79" width="160" height="60" rx="6" ry="6" fill="#dafbe1" stroke="#1a7f37" stroke-width="2"/>
<text x="340" y="109" text-anchor="middle" dominant-baseline="middle" font-family="Inter, system-ui, -apple-system, sans-serif" font-size="14" fill="#116329">Parse</text>
</g>
<g class="node node-decision" data-id="ok">
<polygon points="580,69 660,109 580,149 500,109" fill="#ddf4ff" stroke="#0969da" stroke-width="2" stroke-linejoin="round"/>
<text x="580" y="109" text-anchor="middle" dominant-baseline="middle" font-family="Inter, system-ui, -apple-system, sans-serif" font-size="14" fill="#0550ae">OK?</text>
</g>
<g class="node node-process" data-id="save">
<rect x="740" y="20" width="160" height="60" rx="6" ry="6" fill="#dafbe1" stroke="#1a7f37" stroke-width="2"/>
<text x="820" y="50" text-anchor="middle" dominant-baseline="middle" font-family="Inter, system-ui, -apple-system, sans-serif" font-size="14" fill="#116329">Save</text>
</g>
<g class="node node-terminal" data-id="retry">
<rect x="740" y="140" width="160" height="56" rx="28" ry="28" fill="#fbefff" stroke="#8250df" stroke-width="2"/>
<text x="820" y="168" text-anchor="middle" dominant-baseline="middle" font-family="Inter, system-ui, -apple-system, sans-serif" font-size="14" fill="#5a32a3">Retry</text>
</g>
</g>
</svg>