<svg xmlns="http://www.w3.org/2000/svg" width="476" height="1448" viewBox="-28 -28 476 1448">
<defs>
    <marker id="arrowhead" markerWidth="8" markerHeight="6"
      refX="7" refY="3" orient="auto" markerUnits="strokeWidth">
      <polygon points="0 0, 8 3, 0 6, 1.5 3" fill="#555555"/>
    </marker>
    <style>
      @keyframes ai-fc-flow { to { stroke-dashoffset: -26; } }
      .ai-fc-edge { animation: ai-fc-flow 1.2s linear infinite; }
    </style>
  </defs>
<g class="flowchart">

<g class="edge" data-from="alert" data-to="triage">
<path d="M210,76 L210,106 Q210,116 210,126 L210,156" fill="none" stroke="#555555" stroke-width="1.5" stroke-linecap="round" stroke-linejoin="round" stroke-dasharray="8 5" class="ai-fc-edge" marker-end="url(#arrowhead)"/>

</g>
<g class="edge" data-from="triage" data-to="sev">
<path d="M210,216 L210,246 Q210,256 210,266 L210,296" fill="none" stroke="#555555" stroke-width="1.5" stroke-linecap="round" stroke-linejoin="round" stroke-dasharray="8 5" class="ai-fc-edge" marker-end="url(#arrowhead)"/>

</g>
<g class="edge" data-from="sev" data-to="page">
<path d="M155,376 L108.08736084303189,410.11828302324955 Q100,416 100,426 L100,456" fill="none" stroke="#555555" stroke-width="1.5" stroke-linecap="round" stroke-linejoin="round" stroke-dasharray="8 5" class="ai-fc-edge" marker-end="url(#arrowhead)"/>
<rect x="76.5" y="406" width="47" height="20" fill="white" rx="3" opacity="0.9"/>
<text x="100" y="416" text-anchor="middle" dominant-baseline="middle" font-family="Inter, system-ui, -apple-system, sans-serif" font-size="12" fill="#555555">P1/P2</text>
</g>
<g class="edge" data-from="sev" data-to="slack">
<path d="M265,376 L311.9126391569681,410.11828302324955 Q320,416 320,426 L320,456" fill="none" stroke="#555555" stroke-width="1.5" stroke-linecap="round" stroke-linejoin="round" stroke-dasharray="8 5" class="ai-fc-edge" marker-end="url(#arrowhead)"/>
<rect x="307" y="406" width="26" height="20" fill="white" rx="3" opacity="0.9"/>
<text x="320" y="416" text-anchor="middle" dominant-baseline="middle" font-family="Inter, system-ui, -apple-system, sans-serif" font-size="12" fill="#555555">P3</text>
</g>
<g class="edge" data-from="page" data-to="investigate">
<path d="M100,516 L100,546 Q100,556 108.43661487732108,561.3687549219316 L162.85714285714286,596" fill="none" stroke="#555555" stroke-width="1.5" stroke-linecap="round" stroke-linejoin="round" stroke-dasharray="8 5" class="ai-fc-edge" marker-end="url(#arrowhead)"/>

</g>
<g class="edge" data-from="slack" data-to="investigate">
<path d="M320,516 L320,546 Q320,556 311.56338512267894,561.3687549219316 L257.14285714285717,596" fill="none" stroke="#555555" stroke-width="1.5" stroke-linecap="round" stroke-linejoin="round" stroke-dasharray="8 5" class="ai-fc-edge" marker-end="url(#arrowhead)"/>

</g>
<g class="edge" data-from="investigate" data-to="root_cause">
<path d="M167.14285714285714,656 L118.1923192051904,690.2653765563667 Q110,696 110,706 L110,736" fill="none" stroke="#555555" stroke-width="1.5" stroke-linecap="round" stroke-linejoin="round" stroke-dasharray="8 5" class="ai-fc-edge" marker-end="url(#arrowhead)"/>

</g>
<g class="edge" data-from="root_cause" data-to="fix">
<path d="M105,816 L101.24034734589209,846.0772212328633 Q100,856 100,866 L100,896" fill="none" stroke="#555555" stroke-width="1.5" stroke-linecap="round" stroke-linejoin="round" stroke-dasharray="8 5" class="ai-fc-edge" marker-end="url(#arrowhead)"/>
<rect x="83.5" y="846" width="33" height="20" fill="white" rx="3" opacity="0.9"/>
<text x="100" y="856" text-anchor="middle" dominant-baseline="middle" font-family="Inter, system-ui, -apple-system, sans-serif" font-size="12" fill="#555555">Yes</text>
</g>
<g class="edge" data-from="root_cause" data-to="escalate">
<path d="M165,816 L211.9126391569681,850.1182830232495 Q220,856 228.19231920519042,861.7346234436333 L277.14285714285717,896" fill="none" stroke="#555555" stroke-width="1.5" stroke-linecap="round" stroke-linejoin="round" stroke-dasharray="8 5" class="ai-fc-edge" marker-end="url(#arrowhead)"/>
<rect x="207" y="846" width="26" height="20" fill="white" rx="3" opacity="0.9"/>
<text x="220" y="856" text-anchor="middle" dominant-baseline="middle" font-family="Inter, system-ui, -apple-system, sans-serif" font-size="12" fill="#555555">No</text>
</g>
<g class="edge" data-from="escalate" data-to="investigate">
<path d="M324.2857142857143,896 L328.5857864376269,865.8994949366116 Q330,856 330,846 L330,786 Q330,776 330,766 L330,706 Q330,696 321.3622109910157,690.9612897447591 L261.42857142857144,656" fill="none" stroke="#555555" stroke-width="1.5" stroke-linecap="round" stroke-linejoin="round" stroke-dasharray="8 5" class="ai-fc-edge" marker-end="url(#arrowhead)"/>

</g>
<g class="edge" data-from="fix" data-to="verify">
<path d="M100,956 L100,986 Q100,996 100,1006 L100,1036" fill="none" stroke="#555555" stroke-width="1.5" stroke-linecap="round" stroke-linejoin="round" stroke-dasharray="8 5" class="ai-fc-edge" marker-end="url(#arrowhead)"/>

</g>
<g class="edge" data-from="verify" data-to="resolved">
<path d="M100,1096 L100,1126 Q100,1136 100,1146 L100,1176" fill="none" stroke="#555555" stroke-width="1.5" stroke-linecap="round" stroke-linejoin="round" stroke-dasharray="8 5" class="ai-fc-edge" marker-end="url(#arrowhead)"/>

</g>
<g class="edge" data-from="resolved" data-to="postmortem">
<path d="M100,1232 L100,1262 Q100,1272 100,1282 L100,1312" fill="none" stroke="#555555" stroke-width="1.5" stroke-linecap="round" stroke-linejoin="round" stroke-dasharray="8 5" class="ai-fc-edge" marker-end="url(#arrowhead)"/>

</g>
<g class="node node-terminal" data-id="alert">
<rect x="130" y="20" width="160" height="56" rx="28" ry="28" fill="#eafaf1" stroke="#27ae60" stroke-width="1.5"/>
<text x="210" y="48" text-anchor="middle" dominant-baseline="middle" font-family="Inter, system-ui, -apple-system, sans-serif" font-size="14" fill="#1b5e20">Alert Triggered</text>
</g>
<g class="node node-process" data-id="triage">
<rect x="130" y="156" width="160" height="60" rx="6" ry="6" fill="#e8f4fd" stroke="#2196f3" stroke-width="1.5"/>
<text x="210" y="186" text-anchor="middle" dominant-baseline="middle" font-family="Inter, system-ui, -apple-system, sans-serif" font-size="14" fill="#1565c0">Triage Severity</text>
</g>
<g class="node node-decision" data-id="sev">
<polygon points="210,296 290,336 210,376 130,336" fill="#fef9e7" stroke="#f39c12" stroke-width="1.5" stroke-linejoin="round"/>
<text x="210" y="336" text-anchor="middle" dominant-baseline="middle" font-family="Inter, system-ui, -apple-system, sans-serif" font-size="14" fill="#e65100">Severity?</text>
</g>
<g class="node node-io" data-id="page">
<polygon points="34,456 180,456 166,516 20,516" fill="#fdf2f8" stroke="#8e44ad" stroke-width="1.5" stroke-linejoin="round"/>
<text x="100" y="486" text-anchor="middle" dominant-baseline="middle" font-family="Inter, system-ui, -apple-system, sans-serif" font-size="14" fill="#6a1b9a">Page On-call</text>
</g>
<g class="node node-io" data-id="slack">
<polygon points="254,456 400,456 386,516 240,516" fill="#fdf2f8" stroke="#8e44ad" stroke-width="1.5" stroke-linejoin="round"/>
<text x="320" y="476.2" text-anchor="middle" dominant-baseline="middle" font-family="Inter, system-ui, -apple-system, sans-serif" font-size="14" fill="#6a1b9a">Post to</text>
<text x="320" y="495.8" text-anchor="middle" dominant-baseline="middle" font-family="Inter, system-ui, -apple-system, sans-serif" font-size="14" fill="#6a1b9a">#incidents</text>
</g>
<g class="node node-process" data-id="investigate">
<rect x="130" y="596" width="160" height="60" rx="6" ry="6" fill="#e8f4fd" stroke="#2196f3" stroke-width="1.5"/>
<text x="210" y="626" text-anchor="middle" dominant-baseline="middle" font-family="Inter, system-ui, -apple-system, sans-serif" font-size="14" fill="#1565c0">Investigate</text>
</g>
<g class="node node-decision" data-id="root_cause">
<polygon points="110,736 190,776 110,816 30,776" fill="#fef9e7" stroke="#f39c12" stroke-width="1.5" stroke-linejoin="round"/>
<text x="110" y="776" text-anchor="middle" dominant-baseline="middle" font-family="Inter, system-ui, -apple-system, sans-serif" font-size="14" fill="#e65100">Root Cause Found?</text>
</g>
<g class="node node-process" data-id="escalate">
<rect x="240" y="896" width="160" height="60" rx="6" ry="6" fill="#e8f4fd" stroke="#2196f3" stroke-width="1.5"/>
<text x="320" y="926" text-anchor="middle" dominant-baseline="middle" font-family="Inter, system-ui, -apple-system, sans-serif" font-size="14" fill="#1565c0">Escalate</text>
</g>
<g class="node node-process" data-id="fix">
<rect x="20" y="896" width="160" height="60" rx="6" ry="6" fill="#e8f4fd" stroke="#2196f3" stroke-width="1.5"/>
<text x="100" y="926" text-anchor="middle" dominant-baseline="middle" font-family="Inter, system-ui, -apple-system, sans-serif" font-size="14" fill="#1565c0">Apply Fix</text>
</g>
<g class="node node-process" data-id="verify">
<rect x="20" y="1036" width="160" height="60" rx="6" ry="6" fill="#e8f4fd" stroke="#2196f3" stroke-width="1.5"/>
<text x="100" y="1066" text-anchor="middle" dominant-baseline="middle" font-family="Inter, system-ui, -apple-system, sans-serif" font-size="14" fill="#1565c0">Verify Resolution</text>
</g>
<g class="node node-terminal" data-id="resolved">
<rect x="20" y="1176" width="160" height="56" rx="28" ry="28" fill="#eafaf1" stroke="#27ae60" stroke-width="1.5"/>
<text x="100" y="1204" text-anchor="middle" dominant-baseline="middle" font-family="Inter, system-ui, -apple-system, sans-serif" font-size="14" fill="#1b5e20">Incident Resolved</text>
</g>
<g class="node node-process" data-id="postmortem">
<rect x="20" y="1312" width="160" height="60" rx="6" ry="6" fill="#e8f4fd" stroke="#2196f3" stroke-width="1.5"/>
<text x="100" y="1342" text-anchor="middle" dominant-baseline="middle" font-family="Inter, system-ui, -apple-system, sans-serif" font-size="14" fill="#1565c0">Write Post-mortem</text>
</g>
</g>
</svg>