<svg xmlns="http://www.w3.org/2000/svg" width="2032" height="516" viewBox="-716 -126 2032 516">

<text x="300" y="-92" text-anchor="middle" font-family="Inter, system-ui, -apple-system, sans-serif" font-size="18" font-weight="700" fill="#495057">Knowledge Map</text>
<g class="mindmap">
<path d="M-68,121.3 C-145.4,121.3 -162.6,52 -240,52" fill="none" stroke="#495057" stroke-width="1.5" stroke-linecap="round" stroke-dasharray="6,4"><animate attributeName="stroke-dashoffset" from="0" to="-20" dur="0.8s" repeatCount="indefinite"/></path>
<path d="M-68,121.3 C-145.4,121.3 -162.6,260 -240,260" fill="none" stroke="#495057" stroke-width="1.5" stroke-linecap="round" stroke-dasharray="6,4"><animate attributeName="stroke-dashoffset" from="0" to="-20" dur="0.8s" repeatCount="indefinite"/></path>
<path d="M-360,52 C-441,52 -459,0 -540,0" fill="none" stroke="#495057" stroke-width="1.5" stroke-linecap="round" stroke-dasharray="6,4"><animate attributeName="stroke-dashoffset" from="0" to="-20" dur="0.8s" repeatCount="indefinite"/></path>
<path d="M-360,260 C-441,260 -459,208 -540,208" fill="none" stroke="#495057" stroke-width="1.5" stroke-linecap="round" stroke-dasharray="6,4"><animate attributeName="stroke-dashoffset" from="0" to="-20" dur="0.8s" repeatCount="indefinite"/></path>
<path d="M-360,52 C-441,52 -459,104 -540,104" fill="none" stroke="#495057" stroke-width="1.5" stroke-linecap="round" stroke-dasharray="6,4"><animate attributeName="stroke-dashoffset" from="0" to="-20" dur="0.8s" repeatCount="indefinite"/></path>
<path d="M-360,260 C-441,260 -459,312 -540,312" fill="none" stroke="#495057" stroke-width="1.5" stroke-linecap="round" stroke-dasharray="6,4"><animate attributeName="stroke-dashoffset" from="0" to="-20" dur="0.8s" repeatCount="indefinite"/></path>
<path d="M68,121.3 C145.4,121.3 162.6,52 240,52" fill="none" stroke="#495057" stroke-width="1.5" stroke-linecap="round" stroke-dasharray="6,4"><animate attributeName="stroke-dashoffset" from="0" to="-20" dur="0.8s" repeatCount="indefinite"/></path>
<path d="M360,52 C441,52 459,0 540,0" fill="none" stroke="#495057" stroke-width="1.5" stroke-linecap="round" stroke-dasharray="6,4"><animate attributeName="stroke-dashoffset" from="0" to="-20" dur="0.8s" repeatCount="indefinite"/></path>
<path d="M360,52 C441,52 459,104 540,104" fill="none" stroke="#495057" stroke-width="1.5" stroke-linecap="round" stroke-dasharray="6,4"><animate attributeName="stroke-dashoffset" from="0" to="-20" dur="0.8s" repeatCount="indefinite"/></path>
<path d="M660,104 C741,104 759,104 840,104" fill="none" stroke="#495057" stroke-width="1.5" stroke-linecap="round" stroke-dasharray="6,4"><animate attributeName="stroke-dashoffset" from="0" to="-20" dur="0.8s" repeatCount="indefinite"/></path>
<path d="M960,104 C1041,104 1059,104 1140,104" fill="none" stroke="#495057" stroke-width="1.5" stroke-linecap="round" stroke-dasharray="6,4"><animate attributeName="stroke-dashoffset" from="0" to="-20" dur="0.8s" repeatCount="indefinite"/></path>
<g class="node node-terminal" data-id="root">
<rect x="-68" y="96.3" width="136" height="50" rx="6" ry="6" fill="#ecfdf5" stroke="#10b981" stroke-width="2.8"/>
<text x="0" y="121.3" text-anchor="middle" dominant-baseline="middle" font-family="Inter, system-ui, -apple-system, sans-serif" font-size="14" font-weight="700" fill="#047857">Knowledge Base</text>
</g>
<g class="node node-process" data-id="docs">
<rect x="-360" y="30" width="120" height="44" rx="6" ry="6" fill="#eef2ff" stroke="#6366f1" stroke-width="2"/>
<text x="-300" y="52" text-anchor="middle" dominant-baseline="middle" font-family="Inter, system-ui, -apple-system, sans-serif" font-size="13" fill="#4338ca">Docs</text>
</g>
<g class="node node-process" data-id="runbooks">
<rect x="-360" y="238" width="120" height="44" rx="6" ry="6" fill="#eef2ff" stroke="#6366f1" stroke-width="2"/>
<text x="-300" y="260" text-anchor="middle" dominant-baseline="middle" font-family="Inter, system-ui, -apple-system, sans-serif" font-size="13" fill="#4338ca">Runbooks</text>
</g>
<g class="node node-decision" data-id="apis">
<rect x="-660" y="-22" width="120" height="44" rx="6" ry="6" fill="#ecfeff" stroke="#06b6d4" stroke-width="2"/>
<text x="-600" y="0" text-anchor="middle" dominant-baseline="middle" font-family="Inter, system-ui, -apple-system, sans-serif" font-size="13" fill="#0891b2">API Guides</text>
</g>
<g class="node node-decision" data-id="playbooks">
<rect x="-660" y="186" width="120" height="44" rx="6" ry="6" fill="#ecfeff" stroke="#06b6d4" stroke-width="2"/>
<text x="-600" y="208" text-anchor="middle" dominant-baseline="middle" font-family="Inter, system-ui, -apple-system, sans-serif" font-size="13" fill="#0891b2">Playbooks</text>
</g>
<g class="node node-decision" data-id="tutorials">
<rect x="-660" y="82" width="120" height="44" rx="6" ry="6" fill="#ecfeff" stroke="#06b6d4" stroke-width="2"/>
<text x="-600" y="104" text-anchor="middle" dominant-baseline="middle" font-family="Inter, system-ui, -apple-system, sans-serif" font-size="13" fill="#0891b2">Tutorials</text>
</g>
<g class="node node-decision" data-id="faq">
<rect x="-660" y="290" width="120" height="44" rx="6" ry="6" fill="#ecfeff" stroke="#06b6d4" stroke-width="2"/>
<text x="-600" y="312" text-anchor="middle" dominant-baseline="middle" font-family="Inter, system-ui, -apple-system, sans-serif" font-size="13" fill="#0891b2">FAQ</text>
</g>
<g class="node node-process" data-id="tools">
<rect x="240" y="30" width="120" height="44" rx="6" ry="6" fill="#eef2ff" stroke="#6366f1" stroke-width="2"/>
<text x="300" y="52" text-anchor="middle" dominant-baseline="middle" font-family="Inter, system-ui, -apple-system, sans-serif" font-size="13" fill="#4338ca">Internal Tools</text>
</g>
<g class="node node-decision" data-id="ci">
<rect x="540" y="-22" width="120" height="44" rx="6" ry="6" fill="#ecfeff" stroke="#06b6d4" stroke-width="2"/>
<text x="600" y="0" text-anchor="middle" dominant-baseline="middle" font-family="Inter, system-ui, -apple-system, sans-serif" font-size="13" fill="#0891b2">CI/CD</text>
</g>
<g class="node node-decision" data-id="ops">
<rect x="540" y="82" width="120" height="44" rx="6" ry="6" fill="#ecfeff" stroke="#06b6d4" stroke-width="2"/>
<text x="600" y="104" text-anchor="middle" dominant-baseline="middle" font-family="Inter, system-ui, -apple-system, sans-serif" font-size="13" fill="#0891b2">Ops</text>
</g>
<g class="node node-io" data-id="observability">
<rect x="840" y="82" width="120" height="44" rx="6" ry="6" fill="#fdf2f8" stroke="#ec4899" stroke-width="2"/>
<text x="900" y="104" text-anchor="middle" dominant-baseline="middle" font-family="Inter, system-ui, -apple-system, sans-serif" font-size="13" fill="#be185d">Observability</text>
</g>
<g class="node node-terminal" data-id="oncall">
<rect x="1140" y="82" width="120" height="44" rx="6" ry="6" fill="#ecfdf5" stroke="#10b981" stroke-width="2"/>
<text x="1200" y="104" text-anchor="middle" dominant-baseline="middle" font-family="Inter, system-ui, -apple-system, sans-serif" font-size="13" fill="#047857">On-call Guide</text>
</g>
</g>
</svg>