<svg xmlns="http://www.w3.org/2000/svg" width="880" height="748" viewBox="0 0 880 748">
<defs>
  <marker id="seq-arrow-1" markerWidth="8" markerHeight="6" refX="7" refY="3" orient="auto" markerUnits="strokeWidth">
    <polygon points="0 0, 8 3, 0 6, 1.5 3" fill="#495057"/>
  </marker>
  <style>
    .seq-lifeline { animation: seq-lifeline-march 1.2s linear infinite; }
    .seq-return   { animation: seq-dash-march 0.8s linear infinite; }
    @keyframes seq-lifeline-march { to { stroke-dashoffset: -8; } }
    @keyframes seq-dash-march     { to { stroke-dashoffset: -10; } }
  </style>
</defs>
<g class="sequence-diagram">
<line x1="80" y1="68" x2="80" y2="716" stroke="#51cf66" stroke-width="1.5" stroke-dasharray="4 4" opacity="0.4" class="seq-lifeline"/>
<line x1="260" y1="68" x2="260" y2="716" stroke="#f59f00" stroke-width="1.5" stroke-dasharray="4 4" opacity="0.4" class="seq-lifeline"/>
<line x1="440" y1="68" x2="440" y2="716" stroke="#339af0" stroke-width="1.5" stroke-dasharray="4 4" opacity="0.4" class="seq-lifeline"/>
<line x1="620" y1="68" x2="620" y2="716" stroke="#cc5de8" stroke-width="1.5" stroke-dasharray="4 4" opacity="0.4" class="seq-lifeline"/>
<line x1="800" y1="68" x2="800" y2="716" stroke="#51cf66" stroke-width="1.5" stroke-dasharray="4 4" opacity="0.4" class="seq-lifeline"/>
<rect x="20" y="24" width="120" height="44" rx="22" ry="22" fill="#ebfbee" stroke="#51cf66" stroke-width="2"/>
<text x="80" y="46" text-anchor="middle" dominant-baseline="middle" font-family="Inter, system-ui, -apple-system, sans-serif" font-size="14" fill="#2f9e44">User</text>
<rect x="200" y="24" width="120" height="44" rx="22" ry="22" fill="#fff7e6" stroke="#f59f00" stroke-width="2"/>
<text x="260" y="46" text-anchor="middle" dominant-baseline="middle" font-family="Inter, system-ui, -apple-system, sans-serif" font-size="14" fill="#e67700">Frontend</text>
<rect x="380" y="24" width="120" height="44" rx="22" ry="22" fill="#e7f5ff" stroke="#339af0" stroke-width="2"/>
<text x="440" y="46" text-anchor="middle" dominant-baseline="middle" font-family="Inter, system-ui, -apple-system, sans-serif" font-size="14" fill="#1971c2">Auth API</text>
<rect x="560" y="24" width="120" height="44" rx="22" ry="22" fill="#fdf4ff" stroke="#cc5de8" stroke-width="2"/>
<text x="620" y="46" text-anchor="middle" dominant-baseline="middle" font-family="Inter, system-ui, -apple-system, sans-serif" font-size="14" fill="#862e9c">Email Service</text>
<rect x="740" y="24" width="120" height="44" rx="22" ry="22" fill="#ebfbee" stroke="#51cf66" stroke-width="2"/>
<text x="800" y="46" text-anchor="middle" dominant-baseline="middle" font-family="Inter, system-ui, -apple-system, sans-serif" font-size="14" fill="#2f9e44">Redis</text>
<line x1="80" y1="124" x2="260" y2="124" stroke="#495057" stroke-width="1.5" fill="none" marker-end="url(#seq-arrow-1)"/>
<rect x="91.92000000000002" y="100" width="156.15999999999997" height="18" fill="white" rx="3" opacity="0.9"/>
<text x="170" y="109" text-anchor="middle" dominant-baseline="middle" font-family="Inter, system-ui, -apple-system, sans-serif" font-size="12" fill="#495057">click Forgot Password</text>
<line x1="260" y1="180" x2="440" y2="180" stroke="#495057" stroke-width="1.5" fill="none" marker-end="url(#seq-arrow-1)"/>
<rect x="268.44" y="156" width="163.11999999999998" height="18" fill="white" rx="3" opacity="0.9"/>
<text x="350" y="165" text-anchor="middle" dominant-baseline="middle" font-family="Inter, system-ui, -apple-system, sans-serif" font-size="12" fill="#495057">POST /forgot { email }</text>
<line x1="440" y1="236" x2="800" y2="236" stroke="#495057" stroke-width="1.5" fill="none" marker-end="url(#seq-arrow-1)"/>
<rect x="534.96" y="212" width="170.07999999999998" height="18" fill="white" rx="3" opacity="0.9"/>
<text x="620" y="221" text-anchor="middle" dominant-baseline="middle" font-family="Inter, system-ui, -apple-system, sans-serif" font-size="12" fill="#495057">SET reset_token TTL=15m</text>
<line x1="440" y1="292" x2="620" y2="292" stroke="#495057" stroke-width="1.5" fill="none" marker-end="url(#seq-arrow-1)"/>
<rect x="451.92" y="268" width="156.15999999999997" height="18" fill="white" rx="3" opacity="0.9"/>
<text x="530" y="277" text-anchor="middle" dominant-baseline="middle" font-family="Inter, system-ui, -apple-system, sans-serif" font-size="12" fill="#495057">sendResetEmail(token)</text>
<line x1="620" y1="348" x2="80" y2="348" stroke="#495057" stroke-width="1.5" fill="none" marker-end="url(#seq-arrow-1)"/>
<rect x="289.32" y="324" width="121.35999999999999" height="18" fill="white" rx="3" opacity="0.9"/>
<text x="350" y="333" text-anchor="middle" dominant-baseline="middle" font-family="Inter, system-ui, -apple-system, sans-serif" font-size="12" fill="#495057">reset link email</text>
<line x1="80" y1="404" x2="260" y2="404" stroke="#495057" stroke-width="1.5" fill="none" marker-end="url(#seq-arrow-1)"/>
<rect x="109.32000000000001" y="380" width="121.35999999999999" height="18" fill="white" rx="3" opacity="0.9"/>
<text x="170" y="389" text-anchor="middle" dominant-baseline="middle" font-family="Inter, system-ui, -apple-system, sans-serif" font-size="12" fill="#495057">click reset link</text>
<line x1="260" y1="460" x2="440" y2="460" stroke="#495057" stroke-width="1.5" fill="none" marker-end="url(#seq-arrow-1)"/>
<rect x="244.08" y="436" width="211.83999999999997" height="18" fill="white" rx="3" opacity="0.9"/>
<text x="350" y="445" text-anchor="middle" dominant-baseline="middle" font-family="Inter, system-ui, -apple-system, sans-serif" font-size="12" fill="#495057">POST /reset { token, newPwd }</text>
<line x1="440" y1="516" x2="800" y2="516" stroke="#495057" stroke-width="1.5" fill="none" marker-end="url(#seq-arrow-1)"/>
<rect x="541.9200000000001" y="492" width="156.15999999999997" height="18" fill="white" rx="3" opacity="0.9"/>
<text x="620" y="501" text-anchor="middle" dominant-baseline="middle" font-family="Inter, system-ui, -apple-system, sans-serif" font-size="12" fill="#495057">GET + DEL reset_token</text>
<line x1="800" y1="572" x2="440" y2="572" stroke="#495057" stroke-width="1.5" fill="none" marker-end="url(#seq-arrow-1)" stroke-dasharray="6 4" class="seq-return"/>
<rect x="576.72" y="548" width="86.55999999999999" height="18" fill="white" rx="3" opacity="0.9"/>
<text x="620" y="557" text-anchor="middle" dominant-baseline="middle" font-family="Inter, system-ui, -apple-system, sans-serif" font-size="12" fill="#495057">token valid</text>
<line x1="440" y1="628" x2="260" y2="628" stroke="#495057" stroke-width="1.5" fill="none" marker-end="url(#seq-arrow-1)" stroke-dasharray="6 4" class="seq-return"/>
<rect x="275.4" y="604" width="149.2" height="18" fill="white" rx="3" opacity="0.9"/>
<text x="350" y="613" text-anchor="middle" dominant-baseline="middle" font-family="Inter, system-ui, -apple-system, sans-serif" font-size="12" fill="#495057">200 password updated</text>
</g>
</svg>