<svg xmlns="http://www.w3.org/2000/svg" width="880" height="580" viewBox="0 0 880 580">
<defs>
  <marker id="seq-arrow-1" markerWidth="8" markerHeight="6" refX="7" refY="3" orient="auto" markerUnits="strokeWidth">
    <polygon points="0 0, 8 3, 0 6, 1.5 3" fill="#555555"/>
  </marker>
  <style>
    .seq-lifeline { animation: seq-lifeline-march 1.2s linear infinite; }
    .seq-return   { animation: seq-dash-march 0.8s linear infinite; }
    @keyframes seq-lifeline-march { to { stroke-dashoffset: -8; } }
    @keyframes seq-dash-march     { to { stroke-dashoffset: -10; } }
  </style>
</defs>
<g class="sequence-diagram">
<line x1="80" y1="68" x2="80" y2="548" stroke="#1565c0" stroke-width="1.5" stroke-dasharray="4 4" opacity="0.4" class="seq-lifeline"/>
<line x1="260" y1="68" x2="260" y2="548" stroke="#42a5f5" stroke-width="1.5" stroke-dasharray="4 4" opacity="0.4" class="seq-lifeline"/>
<line x1="440" y1="68" x2="440" y2="548" stroke="#1976d2" stroke-width="1.5" stroke-dasharray="4 4" opacity="0.4" class="seq-lifeline"/>
<line x1="620" y1="68" x2="620" y2="548" stroke="#90caf9" stroke-width="1.5" stroke-dasharray="4 4" opacity="0.4" class="seq-lifeline"/>
<line x1="800" y1="68" x2="800" y2="548" stroke="#1565c0" stroke-width="1.5" stroke-dasharray="4 4" opacity="0.4" class="seq-lifeline"/>
<rect x="20" y="24" width="120" height="44" rx="22" ry="22" fill="#bbdefb" stroke="#1565c0" stroke-width="1"/>
<text x="80" y="46" text-anchor="middle" dominant-baseline="middle" font-family="Inter, system-ui, -apple-system, sans-serif" font-size="14" fill="#0a3566">User</text>
<rect x="200" y="24" width="120" height="44" rx="22" ry="22" fill="#e8f4fd" stroke="#42a5f5" stroke-width="1"/>
<text x="260" y="46" text-anchor="middle" dominant-baseline="middle" font-family="Inter, system-ui, -apple-system, sans-serif" font-size="14" fill="#1565c0">Order Service</text>
<rect x="380" y="24" width="120" height="44" rx="22" ry="22" fill="#d4eaf9" stroke="#1976d2" stroke-width="1"/>
<text x="440" y="36.2" text-anchor="middle" dominant-baseline="middle" font-family="Inter, system-ui, -apple-system, sans-serif" font-size="14" fill="#0d47a1">Payment</text>
<text x="440" y="55.8" text-anchor="middle" dominant-baseline="middle" font-family="Inter, system-ui, -apple-system, sans-serif" font-size="14" fill="#0d47a1">Service</text>
<rect x="560" y="24" width="120" height="44" rx="22" ry="22" fill="#f0f8ff" stroke="#90caf9" stroke-width="1"/>
<text x="620" y="46" text-anchor="middle" dominant-baseline="middle" font-family="Inter, system-ui, -apple-system, sans-serif" font-size="14" fill="#1976d2">Inventory</text>
<rect x="740" y="24" width="120" height="44" rx="22" ry="22" fill="#bbdefb" stroke="#1565c0" stroke-width="1"/>
<text x="800" y="36.2" text-anchor="middle" dominant-baseline="middle" font-family="Inter, system-ui, -apple-system, sans-serif" font-size="14" fill="#0a3566">Notify</text>
<text x="800" y="55.8" text-anchor="middle" dominant-baseline="middle" font-family="Inter, system-ui, -apple-system, sans-serif" font-size="14" fill="#0a3566">Service</text>
<line x1="80" y1="124" x2="260" y2="124" stroke="#555555" stroke-width="1.5" fill="none" marker-end="url(#seq-arrow-1)"/>
<rect x="116.28" y="100" width="107.43999999999998" height="18" fill="white" rx="3" opacity="0.9"/>
<text x="170" y="109" text-anchor="middle" dominant-baseline="middle" font-family="Inter, system-ui, -apple-system, sans-serif" font-size="12" fill="#555555">POST /checkout</text>
<line x1="260" y1="180" x2="620" y2="180" stroke="#555555" stroke-width="1.5" fill="none" marker-end="url(#seq-arrow-1)"/>
<rect x="393.24" y="156" width="93.51999999999998" height="18" fill="white" rx="3" opacity="0.9"/>
<text x="440" y="165" text-anchor="middle" dominant-baseline="middle" font-family="Inter, system-ui, -apple-system, sans-serif" font-size="12" fill="#555555">reserveStock</text>
<line x1="620" y1="236" x2="260" y2="236" stroke="#555555" stroke-width="1.5" fill="none" marker-end="url(#seq-arrow-1)" stroke-dasharray="6 4" class="seq-return"/>
<rect x="407.16" y="212" width="65.67999999999999" height="18" fill="white" rx="3" opacity="0.9"/>
<text x="440" y="221" text-anchor="middle" dominant-baseline="middle" font-family="Inter, system-ui, -apple-system, sans-serif" font-size="12" fill="#555555">reserved</text>
<line x1="260" y1="292" x2="440" y2="292" stroke="#555555" stroke-width="1.5" fill="none" marker-end="url(#seq-arrow-1)"/>
<rect x="310.2" y="268" width="79.6" height="18" fill="white" rx="3" opacity="0.9"/>
<text x="350" y="277" text-anchor="middle" dominant-baseline="middle" font-family="Inter, system-ui, -apple-system, sans-serif" font-size="12" fill="#555555">chargeCard</text>
<line x1="440" y1="348" x2="260" y2="348" stroke="#555555" stroke-width="1.5" fill="none" marker-end="url(#seq-arrow-1)" stroke-dasharray="6 4" class="seq-return"/>
<rect x="306.72" y="324" width="86.55999999999999" height="18" fill="white" rx="3" opacity="0.9"/>
<text x="350" y="333" text-anchor="middle" dominant-baseline="middle" font-family="Inter, system-ui, -apple-system, sans-serif" font-size="12" fill="#555555">txn success</text>
<line x1="260" y1="404" x2="800" y2="404" stroke="#555555" stroke-width="1.5" fill="none" marker-end="url(#seq-arrow-1)"/>
<rect x="469.32" y="380" width="121.35999999999999" height="18" fill="white" rx="3" opacity="0.9"/>
<text x="530" y="389" text-anchor="middle" dominant-baseline="middle" font-family="Inter, system-ui, -apple-system, sans-serif" font-size="12" fill="#555555">sendConfirmation</text>
<line x1="260" y1="460" x2="80" y2="460" stroke="#555555" stroke-width="1.5" fill="none" marker-end="url(#seq-arrow-1)" stroke-dasharray="6 4" class="seq-return"/>
<rect x="109.32000000000001" y="436" width="121.35999999999999" height="18" fill="white" rx="3" opacity="0.9"/>
<text x="170" y="445" text-anchor="middle" dominant-baseline="middle" font-family="Inter, system-ui, -apple-system, sans-serif" font-size="12" fill="#555555">200 Order placed</text>
</g>
</svg>