<svg xmlns="http://www.w3.org/2000/svg" width="984" height="692" viewBox="0 0 984 692">
<defs>
  <marker id="seq-arrow-1" markerWidth="8" markerHeight="6" refX="7" refY="3" orient="auto" markerUnits="strokeWidth">
    <polygon points="0 0, 8 3, 0 6, 1.5 3" fill="#495057"/>
  </marker>
  <style>
    .seq-lifeline { animation: seq-lifeline-march 1.2s linear infinite; }
    .seq-return   { animation: seq-dash-march 0.8s linear infinite; }
    @keyframes seq-lifeline-march { to { stroke-dashoffset: -8; } }
    @keyframes seq-dash-march     { to { stroke-dashoffset: -10; } }
  </style>
</defs>
<g class="sequence-diagram">
<line x1="80" y1="68" x2="80" y2="660" stroke="#72b7b2" stroke-width="1.5" stroke-dasharray="4 4" opacity="0.4" class="seq-lifeline"/>
<line x1="260" y1="68" x2="260" y2="660" stroke="#4c78a8" stroke-width="1.5" stroke-dasharray="4 4" opacity="0.4" class="seq-lifeline"/>
<line x1="440" y1="68" x2="440" y2="660" stroke="#f58518" stroke-width="1.5" stroke-dasharray="4 4" opacity="0.4" class="seq-lifeline"/>
<line x1="620" y1="68" x2="620" y2="660" stroke="#e45756" stroke-width="1.5" stroke-dasharray="4 4" opacity="0.4" class="seq-lifeline"/>
<line x1="800" y1="68" x2="800" y2="660" stroke="#72b7b2" stroke-width="1.5" stroke-dasharray="4 4" opacity="0.4" class="seq-lifeline"/>
<rect x="20" y="24" width="120" height="44" rx="22" ry="22" fill="#e4f3f3" stroke="#72b7b2" stroke-width="2"/>
<text x="80" y="46" text-anchor="middle" dominant-baseline="middle" font-family="Inter, system-ui, -apple-system, sans-serif" font-size="14" fill="#2e6e6a">Developer</text>
<rect x="200" y="24" width="120" height="44" rx="22" ry="22" fill="#e8eff7" stroke="#4c78a8" stroke-width="2"/>
<text x="260" y="46" text-anchor="middle" dominant-baseline="middle" font-family="Inter, system-ui, -apple-system, sans-serif" font-size="14" fill="#2b4d6e">GitHub</text>
<rect x="380" y="24" width="120" height="44" rx="22" ry="22" fill="#fff0e0" stroke="#f58518" stroke-width="2"/>
<text x="440" y="46" text-anchor="middle" dominant-baseline="middle" font-family="Inter, system-ui, -apple-system, sans-serif" font-size="14" fill="#9b5100">CI Runner</text>
<rect x="560" y="24" width="120" height="44" rx="22" ry="22" fill="#fce8e8" stroke="#e45756" stroke-width="2"/>
<text x="620" y="46" text-anchor="middle" dominant-baseline="middle" font-family="Inter, system-ui, -apple-system, sans-serif" font-size="14" fill="#9b1c1c">Registry</text>
<rect x="740" y="24" width="120" height="44" rx="22" ry="22" fill="#e4f3f3" stroke="#72b7b2" stroke-width="2"/>
<text x="800" y="46" text-anchor="middle" dominant-baseline="middle" font-family="Inter, system-ui, -apple-system, sans-serif" font-size="14" fill="#2e6e6a">Cluster</text>
<line x1="80" y1="124" x2="260" y2="124" stroke="#495057" stroke-width="1.5" fill="none" marker-end="url(#seq-arrow-1)"/>
<rect x="137.16" y="100" width="65.67999999999999" height="18" fill="white" rx="3" opacity="0.9"/>
<text x="170" y="109" text-anchor="middle" dominant-baseline="middle" font-family="Inter, system-ui, -apple-system, sans-serif" font-size="12" fill="#495057">git push</text>
<line x1="260" y1="180" x2="440" y2="180" stroke="#495057" stroke-width="1.5" fill="none" marker-end="url(#seq-arrow-1)"/>
<rect x="289.32" y="156" width="121.35999999999999" height="18" fill="white" rx="3" opacity="0.9"/>
<text x="350" y="165" text-anchor="middle" dominant-baseline="middle" font-family="Inter, system-ui, -apple-system, sans-serif" font-size="12" fill="#495057">trigger workflow</text>
<path d="M 440,236 H 484 V 264 H 440" stroke="#495057" stroke-width="1.5" fill="none" marker-end="url(#seq-arrow-1)"/>
<rect x="490" y="241" width="65.67999999999999" height="18" fill="white" rx="3" opacity="0.9"/>
<text x="522.84" y="250" text-anchor="middle" dominant-baseline="middle" font-family="Inter, system-ui, -apple-system, sans-serif" font-size="12" fill="#495057">npm test</text>
<path d="M 440,292 H 484 V 320 H 440" stroke="#495057" stroke-width="1.5" fill="none" marker-end="url(#seq-arrow-1)"/>
<rect x="490" y="297" width="93.51999999999998" height="18" fill="white" rx="3" opacity="0.9"/>
<text x="536.76" y="306" text-anchor="middle" dominant-baseline="middle" font-family="Inter, system-ui, -apple-system, sans-serif" font-size="12" fill="#495057">docker build</text>
<line x1="440" y1="348" x2="620" y2="348" stroke="#495057" stroke-width="1.5" fill="none" marker-end="url(#seq-arrow-1)"/>
<rect x="469.32" y="324" width="121.35999999999999" height="18" fill="white" rx="3" opacity="0.9"/>
<text x="530" y="333" text-anchor="middle" dominant-baseline="middle" font-family="Inter, system-ui, -apple-system, sans-serif" font-size="12" fill="#495057">docker push :sha</text>
<line x1="620" y1="404" x2="440" y2="404" stroke="#495057" stroke-width="1.5" fill="none" marker-end="url(#seq-arrow-1)" stroke-dasharray="6 4" class="seq-return"/>
<rect x="500.64" y="380" width="58.71999999999999" height="18" fill="white" rx="3" opacity="0.9"/>
<text x="530" y="389" text-anchor="middle" dominant-baseline="middle" font-family="Inter, system-ui, -apple-system, sans-serif" font-size="12" fill="#495057">push ok</text>
<line x1="440" y1="460" x2="800" y2="460" stroke="#495057" stroke-width="1.5" fill="none" marker-end="url(#seq-arrow-1)"/>
<rect x="562.8" y="436" width="114.39999999999999" height="18" fill="white" rx="3" opacity="0.9"/>
<text x="620" y="445" text-anchor="middle" dominant-baseline="middle" font-family="Inter, system-ui, -apple-system, sans-serif" font-size="12" fill="#495057">kubectl rollout</text>
<line x1="800" y1="516" x2="440" y2="516" stroke="#495057" stroke-width="1.5" fill="none" marker-end="url(#seq-arrow-1)" stroke-dasharray="6 4" class="seq-return"/>
<rect x="559.32" y="492" width="121.35999999999999" height="18" fill="white" rx="3" opacity="0.9"/>
<text x="620" y="501" text-anchor="middle" dominant-baseline="middle" font-family="Inter, system-ui, -apple-system, sans-serif" font-size="12" fill="#495057">rollout complete</text>
<line x1="440" y1="572" x2="260" y2="572" stroke="#495057" stroke-width="1.5" fill="none" marker-end="url(#seq-arrow-1)" stroke-dasharray="6 4" class="seq-return"/>
<rect x="292.8" y="548" width="114.39999999999999" height="18" fill="white" rx="3" opacity="0.9"/>
<text x="350" y="557" text-anchor="middle" dominant-baseline="middle" font-family="Inter, system-ui, -apple-system, sans-serif" font-size="12" fill="#495057">status: success</text>
</g>
</svg>