<svg xmlns="http://www.w3.org/2000/svg" width="578" height="409" viewBox="0 0 578 409">
<rect width="100%" height="100%" fill="#1a1b1e"/>
<text x="289" y="34" text-anchor="middle" font-family="Inter, system-ui, -apple-system, sans-serif" font-size="18" font-weight="700" fill="#adb5bd">Incident Response</text>
<text x="289" y="53" text-anchor="middle" font-family="Inter, system-ui, -apple-system, sans-serif" font-size="13" fill="#5c6370">Alert triage to resolution and postmortem</text>
<g class="swimlane-diagram" transform="translate(0,67)">
<defs><marker id="sw-1-arrow" markerWidth="8" markerHeight="6" refX="7" refY="3" orient="auto" markerUnits="strokeWidth"><polygon points="0 0, 8 3, 0 6, 1.5 3" fill="#adb5bd"/></marker></defs>
<rect x="130" y="0" width="448" height="114" fill="none" stroke="none"/>
<line x1="0" y1="0" x2="578" y2="0" stroke="#5c6370" stroke-width="1.5"/>
<rect x="0" y="0" width="130" height="114" fill="#5c6370" fill-opacity="0.08" stroke="none"/>
<line x1="130" y1="0" x2="130" y2="114" stroke="#5c6370" stroke-width="1.5"/>
<text x="65" y="57" text-anchor="middle" dominant-baseline="central" font-family="Inter, system-ui, -apple-system, sans-serif" font-size="13" font-weight="700" fill="#adb5bd">Monitor</text>
<rect x="130" y="114" width="448" height="114" fill="rgba(92,99,112,0.15)" stroke="none"/>
<line x1="0" y1="114" x2="578" y2="114" stroke="#5c6370" stroke-width="1.5"/>
<rect x="0" y="114" width="130" height="114" fill="#5c6370" fill-opacity="0.14" stroke="none"/>
<line x1="130" y1="114" x2="130" y2="228" stroke="#5c6370" stroke-width="1.5"/>
<text x="65" y="171" text-anchor="middle" dominant-baseline="central" font-family="Inter, system-ui, -apple-system, sans-serif" font-size="13" font-weight="700" fill="#adb5bd">On-Call</text>
<rect x="130" y="228" width="448" height="114" fill="none" stroke="none"/>
<line x1="0" y1="228" x2="578" y2="228" stroke="#5c6370" stroke-width="1.5"/>
<rect x="0" y="228" width="130" height="114" fill="#5c6370" fill-opacity="0.2" stroke="none"/>
<line x1="130" y1="228" x2="130" y2="342" stroke="#5c6370" stroke-width="1.5"/>
<text x="65" y="285" text-anchor="middle" dominant-baseline="central" font-family="Inter, system-ui, -apple-system, sans-serif" font-size="13" font-weight="700" fill="#adb5bd">Engineering</text>
<line x1="0" y1="342" x2="578" y2="342" stroke="#5c6370" stroke-width="1.5"/>
<path d="M330,57 L378,57" fill="none" stroke="#adb5bd" stroke-width="1.5" stroke-dasharray="6,4" marker-end="url(#sw-1-arrow)"><animate attributeName="stroke-dashoffset" from="0" to="-20" dur="0.8s" repeatCount="indefinite"/></path>
<path d="M454,82 C454,114 254,114 254,146" fill="none" stroke="#adb5bd" stroke-width="1.5" stroke-dasharray="6,4" marker-end="url(#sw-1-arrow)"><animate attributeName="stroke-dashoffset" from="0" to="-20" dur="0.8s" repeatCount="indefinite"/></path>
<path d="M330,171 L378,171" fill="none" stroke="#adb5bd" stroke-width="1.5" stroke-dasharray="6,4" marker-end="url(#sw-1-arrow)"><animate attributeName="stroke-dashoffset" from="0" to="-20" dur="0.8s" repeatCount="indefinite"/></path>
<path d="M454,196 C454,228 254,228 254,260" fill="none" stroke="#adb5bd" stroke-width="1.5" stroke-dasharray="6,4" marker-end="url(#sw-1-arrow)"><animate attributeName="stroke-dashoffset" from="0" to="-20" dur="0.8s" repeatCount="indefinite"/></path>
<path d="M330,285 L378,285" fill="none" stroke="#adb5bd" stroke-width="1.5" stroke-dasharray="6,4" marker-end="url(#sw-1-arrow)"><animate attributeName="stroke-dashoffset" from="0" to="-20" dur="0.8s" repeatCount="indefinite"/></path>
<rect x="178" y="32" width="152" height="50" rx="8" ry="8" fill="#1a2740" stroke="#5b8ff9" stroke-width="2"/>
<text x="254" y="57" text-anchor="middle" dominant-baseline="central" font-family="Inter, system-ui, -apple-system, sans-serif" font-size="13" font-weight="600" fill="#8caff5">Alert Fired</text>
<rect x="378" y="32" width="152" height="50" rx="8" ry="8" fill="#0f2b22" stroke="#5ad8a6" stroke-width="2"/>
<text x="454" y="57" text-anchor="middle" dominant-baseline="central" font-family="Inter, system-ui, -apple-system, sans-serif" font-size="13" font-weight="600" fill="#8de6c4">Page On-Call</text>
<rect x="178" y="146" width="152" height="50" rx="8" ry="8" fill="#201436" stroke="#9270ca" stroke-width="2"/>
<text x="254" y="171" text-anchor="middle" dominant-baseline="central" font-family="Inter, system-ui, -apple-system, sans-serif" font-size="13" font-weight="600" fill="#c4a7e8">Acknowledge</text>
<rect x="378" y="146" width="152" height="50" rx="8" ry="8" fill="#3d1a13" stroke="#e8684a" stroke-width="2"/>
<text x="454" y="171" text-anchor="middle" dominant-baseline="central" font-family="Inter, system-ui, -apple-system, sans-serif" font-size="13" font-weight="600" fill="#f0987d">Triage Severity</text>
<rect x="178" y="260" width="152" height="50" rx="8" ry="8" fill="#1a2740" stroke="#5b8ff9" stroke-width="2"/>
<text x="254" y="285" text-anchor="middle" dominant-baseline="central" font-family="Inter, system-ui, -apple-system, sans-serif" font-size="13" font-weight="600" fill="#8caff5">Apply Fix</text>
<rect x="378" y="260" width="152" height="50" rx="8" ry="8" fill="#0f2b22" stroke="#5ad8a6" stroke-width="2"/>
<text x="454" y="285" text-anchor="middle" dominant-baseline="central" font-family="Inter, system-ui, -apple-system, sans-serif" font-size="13" font-weight="600" fill="#8de6c4">Mark Resolved</text>
</g>
</svg>