<svg xmlns="http://www.w3.org/2000/svg" width="566" height="1028" viewBox="-28 -28 566 1028">
<defs>
    <marker id="arrowhead" markerWidth="8" markerHeight="6"
      refX="7" refY="3" orient="auto" markerUnits="strokeWidth">
      <polygon points="0 0, 8 3, 0 6, 1.5 3" fill="#495057"/>
    </marker>
    <style>
      @keyframes ai-fc-flow { to { stroke-dashoffset: -26; } }
      .ai-fc-edge { animation: ai-fc-flow 1.2s linear infinite; }
    </style>
  </defs>
<g class="flowchart">
<g class="group" data-id="phase1">
<rect x="66" y="110" width="448" height="430" rx="8" fill="rgba(134,142,150,0.06)" stroke="#868e96" stroke-width="1.5" stroke-dasharray="6 3"/>
<text x="76" y="128" font-family="Inter, system-ui, -apple-system, sans-serif" font-size="11" fill="#868e96" font-weight="500">Phase 1 — Prepare</text>
</g>
<g class="group" data-id="phase2">
<rect x="-4" y="550" width="478" height="290" rx="8" fill="rgba(134,142,150,0.06)" stroke="#868e96" stroke-width="1.5" stroke-dasharray="6 3"/>
<text x="6" y="568" font-family="Inter, system-ui, -apple-system, sans-serif" font-size="11" fill="#868e96" font-weight="500">Phase 2 — Commit</text>
</g>
<g class="edge" data-from="coord" data-to="prepare">
<path d="M280,76 L280,106 Q280,116 280,126 L280,156" fill="none" stroke="#495057" stroke-width="1.5" stroke-linecap="round" stroke-linejoin="round" stroke-dasharray="8 5" class="ai-fc-edge" marker-end="url(#arrowhead)"/>

</g>
<g class="edge" data-from="prepare" data-to="p1">
<path d="M232.85714285714286,216 L178.43661487732106,250.63124507806842 Q170,256 170,266 L170,296" fill="none" stroke="#495057" stroke-width="1.5" stroke-linecap="round" stroke-linejoin="round" stroke-dasharray="8 5" class="ai-fc-edge" marker-end="url(#arrowhead)"/>

</g>
<g class="edge" data-from="prepare" data-to="p2">
<path d="M335.7142857142857,216 L401.19528900077825,251.2590017696498 Q410,256 410,266 L410,296" fill="none" stroke="#495057" stroke-width="1.5" stroke-linecap="round" stroke-linejoin="round" stroke-dasharray="8 5" class="ai-fc-edge" marker-end="url(#arrowhead)"/>

</g>
<g class="edge" data-from="p1" data-to="vote1">
<path d="M170,356 L170,386 Q170,396 170,406 L170,436" fill="none" stroke="#495057" stroke-width="1.5" stroke-linecap="round" stroke-linejoin="round" stroke-dasharray="8 5" class="ai-fc-edge" marker-end="url(#arrowhead)"/>

</g>
<g class="edge" data-from="p2" data-to="vote2">
<path d="M410,356 L410,386 Q410,396 410,406 L410,436" fill="none" stroke="#495057" stroke-width="1.5" stroke-linecap="round" stroke-linejoin="round" stroke-dasharray="8 5" class="ai-fc-edge" marker-end="url(#arrowhead)"/>

</g>
<g class="edge" data-from="vote1" data-to="all_ok">
<path d="M140,516 L116,548 Q110,556 110,566 L110,596" fill="none" stroke="#495057" stroke-width="1.5" stroke-linecap="round" stroke-linejoin="round" stroke-dasharray="8 5" class="ai-fc-edge" marker-end="url(#arrowhead)"/>
<rect x="93.5" y="546" width="33" height="20" fill="white" rx="3" opacity="0.9"/>
<text x="110" y="556" text-anchor="middle" dominant-baseline="middle" font-family="Inter, system-ui, -apple-system, sans-serif" font-size="12" fill="#495057">Yes</text>
</g>
<g class="edge" data-from="vote2" data-to="all_ok">
<path d="M355,516 L308.0873608430319,550.1182830232495 Q300,556 290.78364624861933,559.8805700005813 L190,602.3157894736842" fill="none" stroke="#495057" stroke-width="1.5" stroke-linecap="round" stroke-linejoin="round" stroke-dasharray="8 5" class="ai-fc-edge" marker-end="url(#arrowhead)"/>
<rect x="283.5" y="546" width="33" height="20" fill="white" rx="3" opacity="0.9"/>
<text x="300" y="556" text-anchor="middle" dominant-baseline="middle" font-family="Inter, system-ui, -apple-system, sans-serif" font-size="12" fill="#495057">Yes</text>
</g>
<g class="edge" data-from="vote1" data-to="rollback">
<path d="M225,516 L271.9126391569681,550.1182830232495 Q280,556 280,566 L280,626 Q280,636 280,646 L280,706 Q280,716 287.89352217376324,722.1394061351492 L331.42857142857144,756" fill="none" stroke="#495057" stroke-width="1.5" stroke-linecap="round" stroke-linejoin="round" stroke-dasharray="8 5" class="ai-fc-edge" marker-end="url(#arrowhead)"/>
<rect x="267" y="626" width="26" height="20" fill="white" rx="3" opacity="0.9"/>
<text x="280" y="636" text-anchor="middle" dominant-baseline="middle" font-family="Inter, system-ui, -apple-system, sans-serif" font-size="12" fill="#495057">No</text>
</g>
<g class="edge" data-from="vote2" data-to="rollback">
<path d="M410,516 L410,546 Q410,556 410,566 L410,626 Q410,636 410,646 L410,706 Q410,716 405.03861061643164,724.6824314212446 L387.14285714285717,756" fill="none" stroke="#495057" stroke-width="1.5" stroke-linecap="round" stroke-linejoin="round" stroke-dasharray="8 5" class="ai-fc-edge" marker-end="url(#arrowhead)"/>
<rect x="397" y="626" width="26" height="20" fill="white" rx="3" opacity="0.9"/>
<text x="410" y="636" text-anchor="middle" dominant-baseline="middle" font-family="Inter, system-ui, -apple-system, sans-serif" font-size="12" fill="#495057">No</text>
</g>
<g class="edge" data-from="all_ok" data-to="commit">
<path d="M105,676 L101.24034734589209,706.0772212328633 Q100,716 100,726 L100,756" fill="none" stroke="#495057" stroke-width="1.5" stroke-linecap="round" stroke-linejoin="round" stroke-dasharray="8 5" class="ai-fc-edge" marker-end="url(#arrowhead)"/>
<rect x="83.5" y="706" width="33" height="20" fill="white" rx="3" opacity="0.9"/>
<text x="100" y="716" text-anchor="middle" dominant-baseline="middle" font-family="Inter, system-ui, -apple-system, sans-serif" font-size="12" fill="#495057">Yes</text>
</g>
<g class="edge" data-from="all_ok" data-to="rollback">
<path d="M160,676 L202.1913119055697,709.7530495244557 Q210,716 219.1615733490219,720.0081883401971 L301.42857142857144,756" fill="none" stroke="#495057" stroke-width="1.5" stroke-linecap="round" stroke-linejoin="round" stroke-dasharray="8 5" class="ai-fc-edge" marker-end="url(#arrowhead)"/>
<rect x="197" y="706" width="26" height="20" fill="white" rx="3" opacity="0.9"/>
<text x="210" y="716" text-anchor="middle" dominant-baseline="middle" font-family="Inter, system-ui, -apple-system, sans-serif" font-size="12" fill="#495057">No</text>
</g>
<g class="edge" data-from="commit" data-to="done">
<path d="M100,816 L100,846 Q100,856 107.17279380859227,862.9678568426325 L141.1764705882353,896" fill="none" stroke="#495057" stroke-width="1.5" stroke-linecap="round" stroke-linejoin="round" stroke-dasharray="8 5" class="ai-fc-edge" marker-end="url(#arrowhead)"/>

</g>
<g class="edge" data-from="rollback" data-to="done">
<path d="M370,816 L370,846 Q370,856 360.53227255180286,859.219027332387 L250,896.8" fill="none" stroke="#495057" stroke-width="1.5" stroke-linecap="round" stroke-linejoin="round" stroke-dasharray="8 5" class="ai-fc-edge" marker-end="url(#arrowhead)"/>

</g>
<g class="node node-terminal" data-id="coord">
<rect x="200" y="20" width="160" height="56" rx="28" ry="28" fill="#ebfbee" stroke="#51cf66" stroke-width="2"/>
<text x="280" y="48" text-anchor="middle" dominant-baseline="middle" font-family="Inter, system-ui, -apple-system, sans-serif" font-size="14" fill="#2f9e44">Coordinator</text>
</g>
<g class="node node-process" data-id="prepare">
<rect x="200" y="156" width="160" height="60" rx="6" ry="6" fill="#fff7e6" stroke="#f59f00" stroke-width="2"/>
<text x="280" y="186" text-anchor="middle" dominant-baseline="middle" font-family="Inter, system-ui, -apple-system, sans-serif" font-size="14" fill="#e67700">Send Prepare</text>
</g>
<g class="node node-process" data-id="p1">
<rect x="90" y="296" width="160" height="60" rx="6" ry="6" fill="#fff7e6" stroke="#f59f00" stroke-width="2"/>
<text x="170" y="326" text-anchor="middle" dominant-baseline="middle" font-family="Inter, system-ui, -apple-system, sans-serif" font-size="14" fill="#e67700">Participant 1</text>
</g>
<g class="node node-process" data-id="p2">
<rect x="330" y="296" width="160" height="60" rx="6" ry="6" fill="#fff7e6" stroke="#f59f00" stroke-width="2"/>
<text x="410" y="326" text-anchor="middle" dominant-baseline="middle" font-family="Inter, system-ui, -apple-system, sans-serif" font-size="14" fill="#e67700">Participant 2</text>
</g>
<g class="node node-decision" data-id="vote1">
<polygon points="170,436 250,476 170,516 90,476" fill="#e7f5ff" stroke="#339af0" stroke-width="2" stroke-linejoin="round"/>
<text x="170" y="476" text-anchor="middle" dominant-baseline="middle" font-family="Inter, system-ui, -apple-system, sans-serif" font-size="14" fill="#1971c2">Vote 1?</text>
</g>
<g class="node node-decision" data-id="vote2">
<polygon points="410,436 490,476 410,516 330,476" fill="#e7f5ff" stroke="#339af0" stroke-width="2" stroke-linejoin="round"/>
<text x="410" y="476" text-anchor="middle" dominant-baseline="middle" font-family="Inter, system-ui, -apple-system, sans-serif" font-size="14" fill="#1971c2">Vote 2?</text>
</g>
<g class="node node-decision" data-id="all_ok">
<polygon points="110,596 190,636 110,676 30,636" fill="#e7f5ff" stroke="#339af0" stroke-width="2" stroke-linejoin="round"/>
<text x="110" y="636" text-anchor="middle" dominant-baseline="middle" font-family="Inter, system-ui, -apple-system, sans-serif" font-size="14" fill="#1971c2">All Voted Yes?</text>
</g>
<g class="node node-process" data-id="commit">
<rect x="20" y="756" width="160" height="60" rx="6" ry="6" fill="#fff7e6" stroke="#f59f00" stroke-width="2"/>
<text x="100" y="786" text-anchor="middle" dominant-baseline="middle" font-family="Inter, system-ui, -apple-system, sans-serif" font-size="14" fill="#e67700">Send Commit</text>
</g>
<g class="node node-process" data-id="rollback">
<rect x="290" y="756" width="160" height="60" rx="6" ry="6" fill="#fff7e6" stroke="#f59f00" stroke-width="2"/>
<text x="370" y="786" text-anchor="middle" dominant-baseline="middle" font-family="Inter, system-ui, -apple-system, sans-serif" font-size="14" fill="#e67700">Send Rollback</text>
</g>
<g class="node node-terminal" data-id="done">
<rect x="90" y="896" width="160" height="56" rx="28" ry="28" fill="#ebfbee" stroke="#51cf66" stroke-width="2"/>
<text x="170" y="924" text-anchor="middle" dominant-baseline="middle" font-family="Inter, system-ui, -apple-system, sans-serif" font-size="14" fill="#2f9e44">Transaction Done</text>
</g>
</g>
</svg>